<svg width="22" height="24" viewBox="0 0 22 24" fill="none" xmlns="http://www.w3.org/2000/svg">
<path d="M18.6085 19.6H3.48348C2.47515 19.6 1.65015 18.775 1.65015 17.7667C1.65015 17.2167 1.83348 16.7583 2.29181 16.3917C2.29181 16.3917 2.38348 16.3917 2.38348 16.3C3.66681 15.2 4.40015 13.55 4.40015 11.8083V9.33334C4.40015 5.66667 7.33348 2.73334 11.0001 2.73334C11.1835 2.73334 11.2751 2.73334 11.4585 2.73334C11.7335 2.73334 11.9168 2.91667 12.0085 3.1C12.1001 3.28334 12.1918 3.55834 12.1918 3.74167C12.1918 3.925 12.0085 4.2 11.8251 4.29167C11.6418 4.38334 11.3668 4.475 11.1835 4.475C11.1835 4.475 11.0918 4.475 11.0001 4.475H10.9085C8.34181 4.475 6.14181 6.675 6.14181 9.33334V11.9C6.14181 14.1917 5.13348 16.3 3.39181 17.7667V17.8583H18.5168C18.5168 17.8583 18.6085 17.8583 18.6085 17.7667C16.8668 16.3 15.8585 14.1 15.8585 11.9V10.8917C15.8585 10.4333 16.2251 9.975 16.7751 9.975C17.2335 9.975 17.6001 10.3417 17.6001 10.8917V11.9C17.6001 13.6417 18.3335 15.2917 19.6168 16.3917C19.6168 16.3917 19.7085 16.3917 19.7085 16.4833C20.0751 16.85 20.3501 17.3083 20.3501 17.8583C20.3501 18.775 19.5251 19.6 18.6085 19.6Z" fill="#303136"/>
<path d="M11.0002 23.2667C8.9835 23.2667 7.3335 21.6167 7.3335 19.6917C7.3335 19.2334 7.70016 18.775 8.25016 18.775C8.80016 18.775 9.16683 19.1417 9.16683 19.6917C9.16683 20.7 9.99183 21.525 11.0002 21.525C12.0085 21.525 12.9252 20.7 12.9252 19.6917C12.9252 19.2334 13.2918 18.775 13.7502 18.775C14.2085 18.775 14.5752 19.1417 14.5752 19.6917C14.5752 21.6167 13.0168 23.2667 11.0002 23.2667Z" fill="#303136"/>
<path d="M17.9011 8.41669C15.6409 8.41669 13.802 6.56632 13.802 4.29176C13.802 2.01721 15.6409 0.166687 17.9011 0.166687C20.1613 0.166687 22 2.01721 22 4.29176C22 6.56632 20.1613 8.41669 17.9011 8.41669Z" fill="#FFB931"/>
</svg>
