<svg width="16" height="17" viewBox="0 0 16 17" fill="none" xmlns="http://www.w3.org/2000/svg">
<path d="M7.99325 2.18066C4.31325 2.18066 1.33325 5.16733 1.33325 8.84733C1.33325 12.5273 4.31325 15.514 7.99325 15.514C11.6799 15.514 14.6666 12.5273 14.6666 8.84733C14.6666 5.16733 11.6799 2.18066 7.99325 2.18066ZM10.6666 11.514C10.6049 11.5758 10.5316 11.6248 10.451 11.6583C10.3704 11.6917 10.2839 11.709 10.1966 11.709C10.1093 11.709 10.0228 11.6917 9.94217 11.6583C9.86152 11.6248 9.78826 11.5758 9.72658 11.514L7.53325 9.32066C7.47026 9.25892 7.42015 9.18529 7.38582 9.10404C7.35148 9.02279 7.33362 8.93553 7.33325 8.84733V6.18066C7.33325 5.814 7.63325 5.514 7.99992 5.514C8.36658 5.514 8.66658 5.814 8.66658 6.18066V8.574L10.6666 10.574C10.9266 10.834 10.9266 11.254 10.6666 11.514Z" fill="#D2D7DC"/>
</svg>
