<svg width="6" height="10" viewBox="0 0 6 10" fill="none" xmlns="http://www.w3.org/2000/svg">
<path d="M4.81786 8.89538C4.88612 8.82725 4.94028 8.74633 4.97723 8.65725C5.01418 8.56817 5.0332 8.47267 5.0332 8.37623C5.0332 8.27979 5.01418 8.1843 4.97723 8.09521C4.94028 8.00613 4.88612 7.92521 4.81786 7.85709L1.96073 4.99996L4.81786 2.14284C4.95554 2.00515 5.03289 1.81841 5.03289 1.62369C5.03289 1.42898 4.95554 1.24223 4.81786 1.10455C4.68017 0.966864 4.49343 0.889514 4.29871 0.889514C4.104 0.889514 3.91725 0.966864 3.77957 1.10455L0.399617 4.4845C0.331352 4.55263 0.277194 4.63355 0.240242 4.72263C0.20329 4.81171 0.184269 4.9072 0.184269 5.00364C0.184269 5.10009 0.20329 5.19558 0.240242 5.28466C0.277194 5.37374 0.331352 5.45466 0.399617 5.52279L3.77957 8.90274C4.05939 9.18256 4.53067 9.18256 4.81786 8.89538Z" fill="#303136"/>
</svg>
