<svg width="16" height="16" viewBox="0 0 16 16" fill="none" xmlns="http://www.w3.org/2000/svg">
<path fill-rule="evenodd" clip-rule="evenodd" d="M8.00004 1.33331C5.42689 1.33331 3.33337 3.22745 3.33337 5.55554C3.33337 6.25444 3.5265 6.94739 3.89365 7.56202L7.74484 13.8639C7.79611 13.9479 7.89381 14 8.00004 14C8.10627 14 8.20397 13.9479 8.25524 13.8639L12.1079 7.55994C12.4736 6.94739 12.6667 6.25441 12.6667 5.55552C12.6667 3.22745 10.5732 1.33331 8.00004 1.33331ZM8.00004 8.29999C6.52966 8.29999 5.33337 7.16352 5.33337 5.76665C5.33337 4.36979 6.52966 3.23332 8.00004 3.23332C9.47042 3.23332 10.6667 4.36979 10.6667 5.76665C10.6667 7.16352 9.47042 8.29999 8.00004 8.29999Z" fill="#672EE0"/>
</svg>
