<svg width="123" height="90" viewBox="0 0 123 90" fill="none" xmlns="http://www.w3.org/2000/svg">
<path d="M85.4855 84.0177H74.8198C72.2537 84.0177 70.0885 82.0931 69.7677 79.5269L67.2817 60.842H93.0236L90.5376 79.5269C90.2168 82.0931 88.0516 84.0177 85.4855 84.0177Z" fill="#672EE0"/>
<path fill-rule="evenodd" clip-rule="evenodd" d="M93.3444 80.2487C93.0771 80.2487 92.8098 80.2487 92.5425 80.2487C89.0942 79.6072 86.929 75.4371 87.6507 70.9463C88.3725 66.7763 91.3396 63.6488 94.5473 63.6488C94.8146 63.6488 95.0819 63.6755 95.3492 63.729C98.7975 64.2903 100.963 68.4604 100.241 73.0314C99.5192 77.1212 96.5521 80.2487 93.3444 80.2487ZM94.5473 65.7338C92.3019 65.7338 90.2169 68.1396 89.7357 71.2671C89.1744 74.6352 90.6179 77.7627 92.9434 78.1637C93.0504 78.2171 93.184 78.2439 93.3444 78.2439C95.5898 78.2439 97.6748 75.7579 98.156 72.7106C98.7173 69.3425 97.2738 66.1348 94.9483 65.7338C94.8413 65.7338 94.7077 65.7338 94.5473 65.7338Z" fill="#672EE0"/>
<path d="M52.2037 84.0177H41.5381C38.9719 84.0177 36.8067 82.0931 36.486 79.5269L34 60.842H59.7418L57.2559 79.5269C56.9351 82.0931 54.7699 84.0177 52.2037 84.0177Z" fill="#672EE0"/>
<path fill-rule="evenodd" clip-rule="evenodd" d="M60.0627 80.2487C59.7954 80.2487 59.528 80.2487 59.2607 80.2487C55.8125 79.6072 53.6472 75.4371 54.369 70.9463C55.0907 66.7763 58.0578 63.6488 61.2656 63.6488C61.5329 63.6488 61.8002 63.6755 62.0675 63.729C65.5158 64.2903 67.681 68.4604 66.9592 73.0314C66.2375 77.1212 63.2704 80.2487 60.0627 80.2487ZM61.2656 65.7338C59.0202 65.7338 56.9351 68.1396 56.454 71.2671C55.8926 74.6352 57.3361 77.7627 59.6617 78.1637C59.7686 78.2171 59.9023 78.2439 60.0627 78.2439C62.3081 78.2439 64.3931 75.7579 64.8742 72.7106C65.4356 69.3425 63.9921 66.1348 61.6665 65.7338C61.5596 65.7338 61.4259 65.7338 61.2656 65.7338Z" fill="#672EE0"/>
<path opacity="0.5" d="M85.4854 56.9928C86.3675 55.7097 87.2496 54.587 87.5704 53.0633C87.9714 51.0585 87.0091 49.2141 86.2071 47.4499C85.4854 45.846 84.7637 44.0818 85.0844 42.2373C85.325 40.6335 86.2873 39.4306 87.5704 38.5485C86.7685 39.9117 86.2071 41.1948 86.3675 42.7987C86.6081 44.6431 87.8912 46.4073 88.6129 48.1716C89.3347 50.016 89.6554 52.101 88.6931 54.0256C87.9714 55.3087 86.8487 56.271 85.4854 56.9928Z" fill="#C6D7F5"/>
<path opacity="0.5" d="M78.6691 56.9928C79.5512 55.7097 80.3531 54.587 80.7541 53.0633C81.0749 51.0585 80.1928 49.2141 79.3908 47.4499C78.6691 45.846 77.9474 44.0818 78.1879 42.2373C78.4285 40.6335 79.471 39.4306 80.6739 38.5485C79.9522 39.9117 79.3908 41.1948 79.5512 42.7987C79.7918 44.6431 80.9947 46.4073 81.7164 48.1716C82.5183 50.016 82.8391 52.101 81.8768 54.0256C81.1551 55.3087 79.9522 56.271 78.6691 56.9928Z" fill="#C6D7F5"/>
<path opacity="0.5" d="M72.0131 56.9928C72.8952 55.7097 73.6972 54.587 74.0981 53.0633C74.4189 51.0585 73.5368 49.2141 72.7348 47.4499C71.9329 45.846 71.2112 44.0818 71.5319 42.2373C71.7725 40.6335 72.7348 39.4306 74.0179 38.5485C73.2962 39.9117 72.7348 41.1948 72.8952 42.7987C73.0556 44.6431 74.3387 46.4073 75.0604 48.1716C75.8624 50.016 76.1029 52.101 75.1406 54.0256C74.4991 55.3087 73.2962 56.271 72.0131 56.9928Z" fill="#C6D7F5"/>
<path d="M32.7187 11.1226L28.1477 14.1699L24.2183 8.31587L28.7892 5.26855L32.7187 11.1226Z" fill="#A7C0EB"/>
<path d="M32.1573 0.857963C33.28 2.54201 31.195 5.8299 27.5061 8.31587C23.8173 10.7217 19.968 11.4434 18.9255 9.83955C17.8028 8.15551 19.8878 4.86759 23.5767 2.38162C27.1853 -0.0241612 31.1148 -0.74589 32.1573 0.857963Z" fill="#C6D7F5"/>
<path d="M102.647 24.5148C86.2071 0.296604 53.1678 -6.0386 28.8694 10.2405C4.49083 26.5998 -2.08496 59.559 14.114 84.0177L102.647 24.5148Z" fill="#C6D7F5"/>
<path d="M20.0482 20.3447C7.13719 36.2229 5.61353 59.7193 17.8028 78.2438L25.9023 72.7907C15.9584 55.1484 14.1941 35.5813 20.0482 20.3447Z" fill="white"/>
<path d="M119.728 83.6168H109.383H2.64636C1.20289 83.6168 0 84.8197 0 86.3434C0 87.867 1.20289 89.0699 2.64636 89.0699H109.383H119.728C121.171 89.0699 122.374 87.867 122.374 86.3434C122.374 84.8197 121.171 83.6168 119.728 83.6168Z" fill="#A7C0EB"/>
</svg>
