<svg width="119" height="136" viewBox="0 0 119 136" fill="none" xmlns="http://www.w3.org/2000/svg">
<path d="M68.3736 37.0614H52.0189L53.6661 24.5895H66.7558L68.3736 37.0614Z" fill="#C2E0C2"/>
<path d="M60.1963 37.0614H52.0189L53.6661 24.5895H60.1963V37.0614Z" fill="#99CC99"/>
<path d="M60.9316 50.8276H59.4902V37.0614H60.9316V50.8276Z" fill="#B8D8E6"/>
<path d="M60.1962 50.8276H59.4902V37.0614H60.1962V50.8276Z" fill="#9FC7D8"/>
<path d="M67.1677 50.8275H53.2544V51.6511H67.1677V50.8275Z" fill="#B8D8E6"/>
<path d="M60.1963 51.0629H53.2544V51.6512H60.1963V51.0629Z" fill="#9FC7D8"/>
<path d="M19.1431 8.79255C19.1431 13.4406 15.3666 17.2171 10.6992 17.2171C6.05119 17.2171 2.27466 13.4406 2.27466 8.79255C2.27466 4.12516 6.05119 0.348633 10.6992 0.348633C15.3666 0.348633 19.1431 4.12516 19.1431 8.79255Z" fill="#0094D9"/>
<path d="M19.1431 8.42456C19.1431 13.092 15.3666 16.8685 10.6992 16.8685C6.05119 16.8685 2.27466 13.092 2.27466 8.42456C2.27466 3.77653 6.05119 0 10.6992 0C15.3666 0 19.1431 3.77653 19.1431 8.42456Z" fill="#0073A7"/>
<path d="M10.6992 14.7575C7.01956 14.7575 4.0177 11.775 4.0177 8.07595C4.0177 4.39626 7.01956 1.39441 10.6992 1.39441C14.3789 1.39441 17.3808 4.39626 17.3808 8.07595C17.3808 11.775 14.3789 14.7575 10.6992 14.7575Z" fill="#073447"/>
<path d="M10.6992 15.1061C7.01956 15.1061 4.0177 12.1236 4.0177 8.42451C4.0177 4.74482 7.01956 1.76233 10.6992 1.76233C14.3789 1.76233 17.3808 4.74482 17.3808 8.42451C17.3808 12.1236 14.3789 15.1061 10.6992 15.1061Z" fill="white"/>
<path fill-rule="evenodd" clip-rule="evenodd" d="M11.2025 8.13414C11.3629 8.41209 11.2675 8.76739 10.9896 8.92774L7.46483 10.9613C7.18688 11.1216 6.83158 11.0263 6.67123 10.7483C6.51088 10.4704 6.6062 10.1151 6.88414 9.95474L10.4089 7.92123C10.6868 7.76088 11.0422 7.8562 11.2025 8.13414Z" fill="#0073A7"/>
<path fill-rule="evenodd" clip-rule="evenodd" d="M10.6993 2.76941C11.0202 2.76941 11.2803 3.02953 11.2803 3.35041V8.42451C11.2803 8.74539 11.0202 9.00552 10.6993 9.00552C10.3784 9.00552 10.1183 8.74539 10.1183 8.42451V3.35041C10.1183 3.02953 10.3784 2.76941 10.6993 2.76941Z" fill="#0073A7"/>
<path d="M44.1844 8.79255C44.1844 13.4406 40.4273 17.2171 35.7599 17.2171C31.1119 17.2171 27.3353 13.4406 27.3353 8.79255C27.3353 4.12516 31.1119 0.348633 35.7599 0.348633C40.4273 0.348633 44.1844 4.12516 44.1844 8.79255Z" fill="#0094D9"/>
<path d="M44.1844 8.42456C44.1844 13.092 40.4273 16.8685 35.7599 16.8685C31.1119 16.8685 27.3353 13.092 27.3353 8.42456C27.3353 3.77653 31.1119 0 35.7599 0C40.4273 0 44.1844 3.77653 44.1844 8.42456Z" fill="#0073A7"/>
<path d="M35.7599 14.7575C32.0802 14.7575 29.0784 11.775 29.0784 8.07595C29.0784 4.39626 32.0802 1.39441 35.7599 1.39441C39.4396 1.39441 42.4415 4.39626 42.4415 8.07595C42.4415 11.775 39.4396 14.7575 35.7599 14.7575Z" fill="#073447"/>
<path d="M35.7599 15.1061C32.0802 15.1061 29.0784 12.1236 29.0784 8.42451C29.0784 4.74482 32.0802 1.76233 35.7599 1.76233C39.4396 1.76233 42.4415 4.74482 42.4415 8.42451C42.4415 12.1236 39.4396 15.1061 35.7599 15.1061Z" fill="white"/>
<path fill-rule="evenodd" clip-rule="evenodd" d="M31.1118 8.42451C31.1118 8.10363 31.3719 7.84351 31.6928 7.84351H35.7598C36.0807 7.84351 36.3409 8.10363 36.3409 8.42451C36.3409 8.74539 36.0807 9.00551 35.7598 9.00551H31.6928C31.3719 9.00551 31.1118 8.74539 31.1118 8.42451Z" fill="#0073A7"/>
<path fill-rule="evenodd" clip-rule="evenodd" d="M35.7598 2.76941C36.0807 2.76941 36.3408 3.02953 36.3408 3.35041V8.42451C36.3408 8.74539 36.0807 9.00552 35.7598 9.00552C35.439 9.00552 35.1788 8.74539 35.1788 8.42451V3.35041C35.1788 3.02953 35.439 2.76941 35.7598 2.76941Z" fill="#0073A7"/>
<path d="M69.2451 8.79255C69.2451 13.4406 65.4686 17.2171 60.8206 17.2171C56.1725 17.2171 52.396 13.4406 52.396 8.79255C52.396 4.12516 56.1725 0.348633 60.8206 0.348633C65.4686 0.348633 69.2451 4.12516 69.2451 8.79255Z" fill="#0094D9"/>
<path d="M69.2451 8.42456C69.2451 13.092 65.4686 16.8685 60.8206 16.8685C56.1725 16.8685 52.396 13.092 52.396 8.42456C52.396 3.77653 56.1725 0 60.8206 0C65.4686 0 69.2451 3.77653 69.2451 8.42456Z" fill="#0073A7"/>
<path d="M60.8206 14.7575C57.1409 14.7575 54.139 11.775 54.139 8.07595C54.139 4.39626 57.1409 1.39441 60.8206 1.39441C64.5003 1.39441 67.5021 4.39626 67.5021 8.07595C67.5021 11.775 64.5003 14.7575 60.8206 14.7575Z" fill="#073447"/>
<path d="M60.9174 15.1061C57.2377 15.1061 54.2358 12.1236 54.2358 8.42451C54.2358 4.74482 57.2377 1.76233 60.9174 1.76233C64.6164 1.76233 67.5989 4.74482 67.5989 8.42451C67.5989 12.1236 64.6164 15.1061 60.9174 15.1061Z" fill="white"/>
<path fill-rule="evenodd" clip-rule="evenodd" d="M64.8486 6.1007C65.009 6.37864 64.9136 6.73394 64.6357 6.89429L61.1109 8.92781C60.833 9.08816 60.4777 8.99283 60.3173 8.71489C60.157 8.43695 60.2523 8.08164 60.5303 7.92129L64.055 5.88778C64.333 5.72743 64.6883 5.82276 64.8486 6.1007Z" fill="#0073A7"/>
<path fill-rule="evenodd" clip-rule="evenodd" d="M60.8208 2.76941C61.1416 2.76941 61.4018 3.02953 61.4018 3.35041V8.42451C61.4018 8.74539 61.1416 9.00552 60.8208 9.00552C60.4999 9.00552 60.2397 8.74539 60.2397 8.42451V3.35041C60.2397 3.02953 60.4999 2.76941 60.8208 2.76941Z" fill="#0073A7"/>
<path d="M94.3059 8.79255C94.3059 13.4406 90.5294 17.2171 85.8813 17.2171C81.2139 17.2171 77.4568 13.4406 77.4568 8.79255C77.4568 4.12516 81.2139 0.348633 85.8813 0.348633C90.5294 0.348633 94.3059 4.12516 94.3059 8.79255Z" fill="#0094D9"/>
<path d="M94.3059 8.42456C94.3059 13.092 90.5294 16.8685 85.8813 16.8685C81.2139 16.8685 77.4568 13.092 77.4568 8.42456C77.4568 3.77653 81.2139 0 85.8813 0C90.5294 0 94.3059 3.77653 94.3059 8.42456Z" fill="#0073A7"/>
<path d="M85.8813 14.7575C82.2016 14.7575 79.1997 11.775 79.1997 8.07595C79.1997 4.39626 82.2016 1.39441 85.8813 1.39441C89.5609 1.39441 92.5628 4.39626 92.5628 8.07595C92.5628 11.775 89.5609 14.7575 85.8813 14.7575Z" fill="#073447"/>
<path d="M85.8813 15.1061C82.2016 15.1061 79.1997 12.1236 79.1997 8.42451C79.1997 4.74482 82.2016 1.76233 85.8813 1.76233C89.5609 1.76233 92.5628 4.74482 92.5628 8.42451C92.5628 12.1236 89.5609 15.1061 85.8813 15.1061Z" fill="white"/>
<path fill-rule="evenodd" clip-rule="evenodd" d="M81.2332 8.42451C81.2332 8.10363 81.4933 7.84351 81.8142 7.84351H85.8812C86.2021 7.84351 86.4622 8.10363 86.4622 8.42451C86.4622 8.74539 86.2021 9.00551 85.8812 9.00551H81.8142C81.4933 9.00551 81.2332 8.74539 81.2332 8.42451Z" fill="#0073A7"/>
<path fill-rule="evenodd" clip-rule="evenodd" d="M85.8813 2.76941C86.2022 2.76941 86.4623 3.02953 86.4623 3.35041V8.42451C86.4623 8.74539 86.2022 9.00552 85.8813 9.00552C85.5604 9.00552 85.3003 8.74539 85.3003 8.42451V3.35041C85.3003 3.02953 85.5604 2.76941 85.8813 2.76941Z" fill="#0073A7"/>
<path d="M45.4821 56.7253H2.70081V51.6512H45.4821V56.7253Z" fill="#B8D8E6"/>
<path d="M83.5379 56.7253H23.4814V51.6512H83.5379V56.7253Z" fill="#9FC7D8"/>
<path d="M71.2012 135.8H16.4513L16.4319 56.7253H74.8422L71.2012 135.8Z" fill="#B8D8E6"/>
<path d="M11.1835 135.8H3.90158L0.26062 67.0284H11.1835V135.8Z" fill="#9FC7D8"/>
<path d="M16.4319 135.8H5.93506V56.7253H16.4319V135.8Z" fill="#9FC7D8"/>
<path d="M102.885 134.231H88.8442V135.8H102.885V134.231Z" fill="#99CC99"/>
<path d="M97.0751 134.231H94.6543V66.4088H97.0751V134.231Z" fill="#99CC99"/>
<path d="M98.1598 64.569C98.1598 65.8472 97.1333 66.8736 95.8551 66.8736C94.5963 66.8736 93.5698 65.8472 93.5698 64.569C93.5698 63.3101 94.5963 62.2837 95.8551 62.2837C97.1333 62.2837 98.1598 63.3101 98.1598 64.569Z" fill="#99CC99"/>
<path d="M109.567 35.8673C113.595 36.487 113.789 53.1231 113.75 57.1708C113.711 61.0829 108.056 69.43 108.056 69.43L105.965 67.4352L109.567 35.8673Z" fill="#0094D9"/>
<path d="M105.965 67.4352L108.056 69.43C108.056 69.43 109.896 66.7186 111.484 63.6781C111.484 58.7976 111.484 48.2427 111.484 45.2796L108.521 45.0278L105.965 67.4352Z" fill="#0073A7"/>
<path d="M97.7915 56.2024C97.7786 56.0088 97.7592 55.8086 97.7334 55.6021C97.7463 55.8086 97.7657 56.0088 97.7915 56.2024Z" fill="#0073A7"/>
<path d="M113.595 102.121C113.595 102.121 113.15 77.5834 113.595 74.872C114.021 72.1607 115.183 70.3789 113.053 65.6534C111.91 63.097 109.296 61.5476 108.986 55.4858L103.311 55.5052C103.311 55.5052 102.285 82.6962 100.774 86.8407C100.774 86.8407 104.125 102.47 104.725 104.038L110.709 126.097H116.442C117.062 110.468 113.595 102.121 113.595 102.121Z" fill="#0073A7"/>
<path d="M106.274 74.7558L102.285 74.5234C101.878 80.1398 101.355 85.2333 100.774 86.8407C100.774 86.8407 104.125 102.47 104.725 104.038L106.274 109.732V74.7558Z" fill="#005E7F"/>
<path d="M112.104 131.113L109.16 133.747L105.364 135.141L104.725 135.8H118.069C118.069 135.8 119.231 133.999 116.771 130.222L112.104 131.113Z" fill="#005E7F"/>
<path d="M116.771 130.222C116.5 128.77 116.442 127.569 116.442 126.097H110.709L112.104 131.113C112.511 130.842 112.549 132.391 112.82 132.585C113.731 133.205 115.396 130.222 117.062 130.687L116.771 130.222Z" fill="#9FC7D8"/>
<path d="M96.0487 132.624C96.0487 132.624 95.7195 133.786 97.5787 133.786C98.7213 133.786 101.394 131.268 101.394 131.268L101.704 126.097H95.429L96.0487 132.624Z" fill="#9FC7D8"/>
<path d="M107.94 62.2643C106.236 57.2676 106.855 55.5052 106.855 55.5052L98.2371 55.6021C98.2371 59.9402 95.3708 63.6974 93.8021 68.3454C91.3232 75.7242 90.9746 89.6295 92.1172 103.322C93.0855 114.884 95.4289 126.097 95.4289 126.097H101.704C102.653 111.533 103.04 107.544 101.704 102.412C101.704 102.412 106.139 75.3562 106.565 74.7558C109.644 70.4758 109.644 67.2609 107.94 62.2643Z" fill="#0073A7"/>
<path d="M95.8745 130.803L96.0488 132.624C95.9907 133.069 96.8428 133.418 97.9661 133.011C99.2443 132.566 99.9222 131.016 101.723 131.307C101.723 131.307 103.253 133.573 102.575 135.8H88.1665L88.4183 135.064C88.4183 135.064 92.2142 134.115 92.892 133.786C95.5452 132.508 95.0417 130.571 95.8745 130.803Z" fill="#005E7F"/>
<path d="M97.1918 26.7649C97.3467 29.3213 99.5158 31.2773 102.072 31.1418C104.629 31.0062 106.585 28.8178 106.449 26.2613C106.294 23.2982 104.028 21.4584 100.697 21.9425C98.1601 22.3105 97.0562 24.0535 97.1918 26.7649Z" fill="#FDC9AA"/>
<path d="M97.1914 26.5519C97.0752 24.286 98.0241 22.4848 100.29 22.3686C102.556 22.2524 104.183 23.918 104.435 26.1645C104.473 26.4938 104.609 27.7526 104.648 28.1012C104.938 30.6189 102.963 33.1172 100.639 33.0397C97.0751 32.9235 97.4238 31.0256 97.2882 28.4885C97.2688 28.1593 97.2107 26.8811 97.1914 26.5519Z" fill="#FDC9AA"/>
<path d="M97.2882 28.4885C97.2689 28.1593 97.2108 26.8811 97.1914 26.5519C97.1527 25.874 97.2108 25.2349 97.3851 24.6733C98.5083 24.499 98.8957 25.7191 99.0312 27.0167C99.0893 26.7455 99.3992 26.5906 99.651 26.7262C99.9996 26.9198 100.271 27.404 100.232 28.0044C100.213 28.6241 99.8059 29.1083 99.2637 29.2245C99.1475 29.2439 99.07 29.3407 99.0506 29.4375C98.9732 30.6189 98.7214 31.7034 97.8692 32.0133C97.2882 31.1999 97.3657 29.9604 97.2882 28.4885Z" fill="#FDC9AA"/>
<path d="M104.957 29.4956C104.957 29.4956 105.771 35.4219 105.713 36.061C105.635 36.9131 104.26 37.5328 102.904 37.4166C101.529 37.3198 100.27 36.4677 100.348 35.6155C100.406 34.9764 99.5732 29.0502 99.5732 29.0502L104.957 29.4956Z" fill="#FDC9AA"/>
<path d="M104.957 29.4956C104.957 29.4956 105.771 35.4218 105.713 36.061C105.674 36.6226 105.054 37.068 104.26 37.3004C104.241 33.8338 101.665 31.1224 99.6507 30.9481L99.5732 29.0502L104.957 29.4956Z" fill="#FDC9AA"/>
<path d="M99.0697 26.6487C99.0697 26.6487 98.2757 27.985 97.2686 28.0431C97.2686 28.0237 97.1137 27.9269 97.1911 29.2632C97.2492 30.5027 97.5978 32.4587 98.5081 32.7299C98.6436 32.7686 98.876 32.7492 98.876 32.7492C99.7863 32.3038 99.6313 29.0308 99.6313 29.0308C99.6313 29.0308 99.5345 29.0889 99.3989 29.1857C99.3602 29.8829 99.3602 31.103 98.9148 31.1224C98.1788 31.103 98.45 27.9075 98.45 27.9075L99.031 27.0166L99.0697 26.6487Z" fill="#FDC9AA"/>
<path d="M108.811 26.4744C111.058 25.4286 109.334 22.6979 107.591 23.6856C107.94 22.9884 108.133 22.1944 108.017 21.4197C107.649 18.7664 104.899 18.6502 103.815 19.6186C103.544 19.4249 103.214 19.3281 102.866 19.3281C102.575 19.3281 102.304 19.4055 102.072 19.5411C101.859 19.0376 101.781 18.6115 101.587 18.3597C100.89 17.4301 98.3145 17.6044 98.8761 21.4197C98.8374 21.0905 97.4817 20.6644 97.1331 21.6521C97.0363 21.9232 97.1331 22.0201 96.7264 21.962C94.8091 21.6908 95.0415 25.0994 98.024 24.8089C96.5521 24.8476 96.281 27.2104 97.869 27.7139C98.3338 27.8495 98.8761 27.985 98.3726 28.7403C97.443 30.1735 98.9729 32.1876 100.135 30.9094C99.2634 31.994 100.871 33.6595 102.227 33.0591C102.769 32.8074 103.098 32.2264 103.737 32.1295C104.512 32.0133 107.01 33.3303 108.54 31.7035C109.199 31.0063 109.199 29.883 108.521 29.1083C109.199 29.0115 109.702 28.5079 109.722 27.8495C109.741 27.2685 109.354 26.7456 108.811 26.4744Z" fill="#303136"/>
<path d="M96.2616 36.2159C98.8955 35.7124 102.207 34.9377 109.567 35.8673C109.567 35.8673 112.355 41.2319 111.213 46.8483C109.876 53.3749 109.644 57.5 109.644 57.5C109.644 57.5 109.838 60.0564 113.769 66.6799C113.75 72.6836 105.577 72.6836 97.5205 65.7309C96.068 64.4721 93.6084 68.7715 93.802 68.3454C94.9834 64.1816 97.4043 59.8821 97.2493 56.4348C97.1719 54.808 97.0944 54.0333 95.2739 50.3924C93.2211 46.1898 95.9324 44.0207 96.2616 36.2159Z" fill="#0094D9"/>
<path d="M101.045 66.2731C100.484 63.8717 99.9607 53.3361 99.4572 45.1633L94.6348 45.8799C94.4024 47.3711 94.4605 48.7268 95.2739 50.3924C97.0944 54.0333 97.1719 54.808 97.2493 56.4348C97.4043 59.8821 94.9834 64.1815 93.802 68.3454C93.6084 68.7715 96.068 64.472 97.5205 65.7309C99.8639 67.7644 102.227 69.1975 104.396 70.069C104.299 70.0109 101.588 68.6359 101.045 66.2731Z" fill="#0073A7"/>
<path d="M76.5659 96.6985H75.2102V76.0729H76.5659V96.6985Z" fill="#303136"/>
<path d="M87.4694 96.6985H86.1138V76.0729H87.4694V96.6985Z" fill="#303136"/>
<path d="M86.5008 78.3968H76.1783C75.3456 78.3968 74.6677 77.719 74.6677 76.8862C74.6677 76.0534 75.3456 75.3756 76.1783 75.3756H86.5008C87.3336 75.3756 88.0115 76.0534 88.0115 76.8862C88.0115 77.719 87.3336 78.3968 86.5008 78.3968Z" fill="#303136"/>
<path d="M75.1133 135.8H73.196C72.7699 135.8 72.4407 135.451 72.4407 135.045V133.185C72.4407 132.759 72.7699 132.43 73.196 132.43H75.1133C75.5394 132.43 75.888 132.759 75.888 133.185V135.045C75.888 135.451 75.5394 135.8 75.1133 135.8Z" fill="#303136"/>
<path d="M74.6485 134.309H72.4407V130.552H74.6485V134.309Z" fill="#303136"/>
<path d="M86.9658 135.8H88.8831C89.3091 135.8 89.6384 135.451 89.6384 135.045V133.185C89.6384 132.759 89.3091 132.43 88.8831 132.43H86.9658C86.5397 132.43 86.2104 132.759 86.2104 133.185V135.045C86.2104 135.451 86.5397 135.8 86.9658 135.8Z" fill="#303136"/>
<path d="M87.4304 134.309H89.6382V130.552H87.4304V134.309Z" fill="#303136"/>
<path d="M88.9798 132.043H73.6994C70.7169 132.043 68.3154 129.641 68.3154 126.659V96.1756C68.3154 93.1931 70.7169 90.7916 73.6994 90.7916H88.9798C91.9429 90.7916 94.3638 93.1931 94.3638 96.1756V126.659C94.3638 129.641 91.9429 132.043 88.9798 132.043Z" fill="#073447"/>
<path d="M68.3928 135.8H66.4755C66.0495 135.8 65.7202 135.451 65.7202 135.045V133.185C65.7202 132.759 66.0495 132.43 66.4755 132.43H68.3928C68.8189 132.43 69.1481 132.759 69.1481 133.185V135.045C69.1481 135.451 68.8189 135.8 68.3928 135.8Z" fill="#073447"/>
<path d="M67.928 134.309H65.7202V130.552H67.928V134.309Z" fill="#073447"/>
<path d="M80.2451 135.8H82.1624C82.5885 135.8 82.9177 135.451 82.9177 135.045V133.185C82.9177 132.759 82.5885 132.43 82.1624 132.43H80.2451C79.8191 132.43 79.4705 132.759 79.4705 133.185V135.045C79.4705 135.451 79.8191 135.8 80.2451 135.8Z" fill="#073447"/>
<path d="M80.71 134.309H82.9178V130.552H80.71V134.309Z" fill="#073447"/>
<path d="M81.9497 132.043H66.6693C63.7062 132.043 61.3047 129.641 61.3047 126.659V96.1756C61.3047 93.1931 63.7062 90.7916 66.6693 90.7916H81.9497C84.9322 90.7916 87.3337 93.1931 87.3337 96.1756V126.659C87.3337 129.641 84.9322 132.043 81.9497 132.043Z" fill="#0073A7"/>
<path d="M73.932 127.104C73.0605 127.104 72.3633 126.407 72.3633 125.536V97.2988C72.3633 96.4273 73.0605 95.7301 73.932 95.7301C74.8035 95.7301 75.5007 96.4273 75.5007 97.2988V125.536C75.5007 126.407 74.8035 127.104 73.932 127.104Z" fill="#073447"/>
<path d="M74.7067 127.104C73.8352 127.104 73.1379 126.407 73.1379 125.536V97.2988C73.1379 96.4273 73.8352 95.7301 74.7067 95.7301C75.5782 95.7301 76.2754 96.4273 76.2754 97.2988V125.536C76.2754 126.407 75.5782 127.104 74.7067 127.104Z" fill="#0094D9"/>
<path d="M74.3192 127.104C73.4477 127.104 72.7505 126.407 72.7505 125.536V97.2988C72.7505 96.4273 73.4477 95.7301 74.3192 95.7301C75.1907 95.7301 75.8879 96.4273 75.8879 97.2988V125.536C75.8879 126.407 75.1907 127.104 74.3192 127.104Z" fill="#0073A7"/>
<path d="M81.0394 127.104C80.1679 127.104 79.4707 126.407 79.4707 125.536V97.2988C79.4707 96.4273 80.1679 95.7301 81.0394 95.7301C81.9109 95.7301 82.6081 96.4273 82.6081 97.2988V125.536C82.6081 126.407 81.9109 127.104 81.0394 127.104Z" fill="#073447"/>
<path d="M81.8141 127.104C80.9426 127.104 80.2454 126.407 80.2454 125.536V97.2988C80.2454 96.4273 80.9426 95.7301 81.8141 95.7301C82.6856 95.7301 83.3828 96.4273 83.3828 97.2988V125.536C83.3828 126.407 82.6856 127.104 81.8141 127.104Z" fill="#0094D9"/>
<path d="M81.4269 127.104C80.5554 127.104 79.8582 126.407 79.8582 125.536V97.2988C79.8582 96.4273 80.5554 95.7301 81.4269 95.7301C82.2984 95.7301 82.9956 96.4273 82.9956 97.2988V125.536C82.9956 126.407 82.2984 127.104 81.4269 127.104Z" fill="#0073A7"/>
<path d="M66.8243 127.104C65.9528 127.104 65.2556 126.407 65.2556 125.536V97.2988C65.2556 96.4273 65.9528 95.7301 66.8243 95.7301C67.6765 95.7301 68.3737 96.4273 68.3737 97.2988V125.536C68.3737 126.407 67.6765 127.104 66.8243 127.104Z" fill="#073447"/>
<path d="M67.599 127.104C66.7275 127.104 66.0303 126.407 66.0303 125.536V97.2988C66.0303 96.4273 66.7275 95.7301 67.599 95.7301C68.4511 95.7301 69.1483 96.4273 69.1483 97.2988V125.536C69.1483 126.407 68.4511 127.104 67.599 127.104Z" fill="#0094D9"/>
<path d="M67.2115 127.104C66.34 127.104 65.6428 126.407 65.6428 125.536V97.2988C65.6428 96.4273 66.34 95.7301 67.2115 95.7301C68.0637 95.7301 68.7609 96.4273 68.7609 97.2988V125.536C68.7609 126.407 68.0637 127.104 67.2115 127.104Z" fill="#0073A7"/>
<path d="M85.0677 70.3789L83.7895 72.2188L81.5236 73.3227L79.3545 77.7577C79.3545 77.7577 81.5042 78.6485 81.5042 78.4549C81.5042 78.2806 83.867 75.6273 83.867 75.6273C83.867 75.6273 86.5202 76.2664 87.4692 73.5744L88.147 72.2188L85.0677 70.3789Z" fill="#FDC9AA"/>
<path d="M96.2618 36.2159C100.155 35.112 100.116 55.6408 98.9732 58.8944C98.1017 61.3346 90.4324 74.1361 90.4324 74.1361C90.4324 74.1361 86.2686 72.9547 85.0678 70.3789C83.8671 67.8225 90.4324 56.7253 90.4324 56.7253C90.4324 56.7253 92.3691 37.3004 96.2618 36.2159Z" fill="#0094D9"/>
</svg>
