<svg width="6" height="10" viewBox="0 0 6 10" fill="none" xmlns="http://www.w3.org/2000/svg">
<path d="M0.982926 1.10462C0.914662 1.17275 0.860503 1.25367 0.823551 1.34275C0.786599 1.43183 0.767578 1.52733 0.767578 1.62377C0.767578 1.72021 0.786599 1.8157 0.823551 1.90479C0.860503 1.99387 0.914662 2.07479 0.982926 2.14291L3.84005 5.00004L0.982926 7.85716C0.845241 7.99485 0.76789 8.18159 0.76789 8.37631C0.76789 8.57102 0.845241 8.75777 0.982926 8.89545C1.12061 9.03314 1.30735 9.11049 1.50207 9.11049C1.69679 9.11049 1.88353 9.03314 2.02121 8.89545L5.40116 5.5155C5.46943 5.44737 5.52359 5.36645 5.56054 5.27737C5.59749 5.18829 5.61651 5.0928 5.61651 4.99636C5.61651 4.89991 5.59749 4.80442 5.56054 4.71534C5.52359 4.62626 5.46943 4.54534 5.40116 4.47721L2.02121 1.09726C1.74139 0.817439 1.27011 0.817439 0.982926 1.10462Z" fill="#303136"/>
</svg>
