<svg width="139" height="150" viewBox="0 0 139 150" fill="none" xmlns="http://www.w3.org/2000/svg">
<path d="M69.8416 145.849C69.8416 147.726 68.3396 149.228 66.462 149.228C64.5844 149.228 63.0823 147.726 63.0823 145.849C63.0823 143.971 64.5844 142.469 66.462 142.469C68.3396 142.469 69.8416 143.971 69.8416 145.849Z" fill="#AE9AD8"/>
<path d="M68.1049 145.849C68.1049 146.741 67.3539 147.492 66.462 147.492C65.5701 147.492 64.8191 146.741 64.8191 145.849C64.8191 144.957 65.5701 144.206 66.462 144.206C67.3539 144.206 68.1049 144.957 68.1049 145.849Z" fill="#E9CFEE"/>
<path d="M66.4621 138.714H68.9968C70.1234 138.714 70.7805 139.934 70.2642 140.92L68.9968 143.126L67.7294 145.285C67.1662 146.271 65.758 146.271 65.1947 145.285L63.9273 143.126L62.6599 140.92C62.0966 139.934 62.8007 138.714 63.9273 138.714H66.4621Z" fill="#AE9AD8"/>
<path d="M117.486 145.849C117.486 147.726 115.984 149.228 114.106 149.228C112.229 149.228 110.727 147.726 110.727 145.849C110.727 143.971 112.229 142.469 114.106 142.469C115.984 142.469 117.486 143.971 117.486 145.849Z" fill="#AE9AD8"/>
<path d="M115.749 145.849C115.749 146.741 114.998 147.492 114.107 147.492C113.215 147.492 112.464 146.741 112.464 145.849C112.464 144.957 113.215 144.206 114.107 144.206C114.998 144.206 115.749 144.957 115.749 145.849Z" fill="#E9CFEE"/>
<path d="M114.106 138.714H116.641C117.768 138.714 118.472 139.934 117.908 140.92L116.641 143.126L115.374 145.285C114.81 146.271 113.402 146.271 112.839 145.285L111.572 143.126L110.304 140.92C109.741 139.934 110.445 138.714 111.572 138.714H114.106Z" fill="#AE9AD8"/>
<path d="M61.0171 122.473H57.8721C54.2108 122.473 51.2535 119.515 51.2535 115.854V71.1202H61.0171V122.473Z" fill="#E7D4EC"/>
<path d="M120.584 138.573H61.0171V71.2611H121.711L120.584 138.573Z" fill="#E7D4EC"/>
<path fill-rule="evenodd" clip-rule="evenodd" d="M61.0641 139.559C60.5008 139.559 59.9845 139.089 59.9845 138.479C60.0314 109.658 60.0314 54.8321 59.9375 53.0014C59.8906 52.4381 60.2661 51.9218 60.8294 51.8279C61.3927 51.734 61.956 52.1096 62.0498 52.7198C62.1907 53.5647 62.1907 112.991 62.1437 138.479C62.1437 139.089 61.6743 139.559 61.0641 139.559Z" fill="#AE9AD8"/>
<path d="M119.974 71.4489C120.021 90.5065 120.021 119.891 119.974 138.479C119.974 139.089 120.49 139.559 121.054 139.559C121.664 139.559 122.133 139.089 122.133 138.479C122.133 122.003 122.18 91.3045 122.133 71.4489H119.974Z" fill="#AE9AD8"/>
<path d="M156.024 72.2469H51.1597C50.5964 72.2469 50.0801 71.7775 50.0801 71.1673C50.0801 70.604 50.5964 70.0876 51.1597 70.0876H156.024C156.587 70.0876 157.103 70.604 157.103 71.1673C157.103 71.7775 156.587 72.2469 156.024 72.2469Z" fill="#AE9AD8"/>
<path d="M121.429 94.3557H61.6272C61.2517 94.3557 60.9231 94.0271 60.9231 93.6516C60.9231 93.2291 61.2517 92.9005 61.6272 92.9005H121.429C121.851 92.9005 122.133 93.2291 122.133 93.6516C122.133 94.0271 121.851 94.3557 121.429 94.3557Z" fill="#AE9AD8"/>
<path d="M121.006 116.793H61.6272C61.2517 116.793 60.9231 116.464 60.9231 116.089C60.9231 115.666 61.2517 115.338 61.6272 115.338H121.006C121.382 115.338 121.71 115.666 121.71 116.089C121.71 116.464 121.382 116.793 121.006 116.793Z" fill="#AE9AD8"/>
<path d="M64.0212 55.2546H59.6558C59.0456 55.2546 58.5762 54.7852 58.5762 54.175C58.5762 53.5647 59.0456 53.0953 59.6558 53.0953H64.0212C64.6314 53.0953 65.1008 53.5647 65.1008 54.175C65.1008 54.7852 64.6314 55.2546 64.0212 55.2546Z" fill="#AE9AD8"/>
<path d="M116.688 115.291H95.424C94.5791 115.291 93.875 114.587 93.875 113.742C93.875 112.85 94.5791 112.146 95.424 112.146H116.688C117.58 112.146 118.284 112.85 118.284 113.742C118.284 114.587 117.58 115.291 116.688 115.291Z" fill="white"/>
<path d="M116.688 112.146H95.424C94.5791 112.146 93.875 111.442 93.875 110.55C93.875 109.705 94.5791 109.001 95.424 109.001H116.688C117.58 109.001 118.284 109.705 118.284 110.55C118.284 111.442 117.58 112.146 116.688 112.146Z" fill="white"/>
<path d="M116.688 109.001H95.424C94.5791 109.001 93.875 108.297 93.875 107.405C93.875 106.56 94.5791 105.856 95.424 105.856H116.688C117.58 105.856 118.284 106.56 118.284 107.405C118.284 108.297 117.58 109.001 116.688 109.001Z" fill="white"/>
<path d="M116.688 105.856H95.424C94.5791 105.856 93.875 105.105 93.875 104.26C93.875 103.368 94.5791 102.664 95.424 102.664H116.688C117.58 102.664 118.284 103.368 118.284 104.26C118.284 105.105 117.58 105.856 116.688 105.856Z" fill="white"/>
<path d="M116.688 102.664H95.424C94.5791 102.664 93.875 101.96 93.875 101.115C93.875 100.223 94.5791 99.5189 95.424 99.5189H116.688C117.58 99.5189 118.284 100.223 118.284 101.115C118.284 101.96 117.58 102.664 116.688 102.664Z" fill="white"/>
<path d="M116.312 102.57H95.7995C95.6586 102.57 95.6586 102.711 95.7995 102.711H116.312C116.453 102.711 116.453 102.57 116.312 102.57Z" fill="#BFCFE9"/>
<path d="M116.312 105.856H95.7995C95.6586 105.856 95.6586 105.997 95.7995 105.997H116.312C116.453 105.997 116.453 105.856 116.312 105.856Z" fill="#BFCFE9"/>
<path d="M116.312 109.001H95.7995C95.6586 109.001 95.6586 109.142 95.7995 109.142H116.312C116.453 109.142 116.453 109.001 116.312 109.001Z" fill="#BFCFE9"/>
<path d="M116.312 112.005H95.7995C95.6586 112.005 95.6586 112.193 95.7995 112.193H116.312C116.453 112.193 116.453 112.005 116.312 112.005Z" fill="#BFCFE9"/>
<path d="M115.89 92.9004H92.5138C91.1995 92.9004 90.1199 91.8677 90.1199 90.5534C90.1199 89.239 91.1995 88.1594 92.5138 88.1594H115.89C117.204 88.1594 118.284 89.239 118.284 90.5534C118.284 91.8677 117.204 92.9004 115.89 92.9004Z" fill="white"/>
<path d="M115.89 88.1595H92.5138C91.1995 88.1595 90.1199 87.1268 90.1199 85.8125C90.1199 84.4981 91.1995 83.4655 92.5138 83.4655H115.89C117.204 83.4655 118.284 84.4981 118.284 85.8125C118.284 87.1268 117.204 88.1595 115.89 88.1595Z" fill="white"/>
<path d="M116.406 88.0186H92.3261C92.1853 88.0186 92.1853 88.2063 92.3261 88.2063H116.406C116.547 88.2063 116.547 88.0186 116.406 88.0186Z" fill="#BFCFE9"/>
<path d="M89.9322 137.4H66.5091C65.2417 137.4 64.1621 136.367 64.1621 135.053C64.1621 133.738 65.2417 132.659 66.5091 132.659H89.9322C91.2465 132.659 92.2792 133.738 92.2792 135.053C92.2792 136.367 91.2465 137.4 89.9322 137.4Z" fill="white"/>
<path d="M89.9322 132.659H66.5091C65.2417 132.659 64.1621 131.626 64.1621 130.312C64.1621 128.997 65.2417 127.918 66.5091 127.918H89.9322C91.2465 127.918 92.2792 128.997 92.2792 130.312C92.2792 131.626 91.2465 132.659 89.9322 132.659Z" fill="white"/>
<path d="M90.4016 128.81H65.4764C64.8662 127.918 64.1621 127.214 64.1621 126.322V124.82C64.1621 123.928 64.8662 123.177 65.7581 123.177H90.6832C91.5751 123.177 92.2792 123.928 92.2792 124.82V126.322C92.2792 127.214 91.5751 127.918 90.4016 128.81Z" fill="white"/>
<path d="M90.4017 132.518H66.3684C66.1806 132.518 66.1806 132.659 66.3684 132.659H90.4017C90.5894 132.659 90.5894 132.518 90.4017 132.518Z" fill="#BFCFE9"/>
<path d="M90.4017 128.387H66.3684C66.1806 128.387 66.1806 128.528 66.3684 128.528H90.4017C90.5894 128.528 90.5894 128.387 90.4017 128.387Z" fill="#BFCFE9"/>
<path d="M115.796 137.4C115.609 137.4 115.421 137.4 115.233 137.4C112.198 137.4 109.162 137.4 106.127 137.4C103.451 137.4 100.682 137.587 98.0529 137.259C97.6774 137.259 97.3019 137.118 97.1611 136.789C96.9264 136.414 97.0202 135.757 97.1611 135.381C97.3488 134.959 97.6774 134.583 98.1468 134.536C97.5366 134.395 97.0202 133.879 96.9733 133.269C96.8794 132.659 97.3019 132.001 97.8652 131.814C96.5508 130.922 97.208 128.81 98.804 128.81H115.796C117.392 128.81 118.707 130.077 118.707 131.673V134.489C118.707 136.132 117.392 137.4 115.796 137.4Z" fill="white"/>
<path d="M117.674 133.222C117.439 132.705 117.11 132.142 116.641 131.861C116.125 131.532 115.561 131.438 114.951 131.438C114.247 131.391 113.543 131.438 112.839 131.438C111.384 131.485 109.882 131.532 108.427 131.626C106.924 131.72 105.469 131.767 104.014 131.861C103.263 131.892 102.528 131.907 101.808 131.907C101.057 131.907 100.353 131.907 99.6488 131.861C99.2732 131.829 98.9134 131.782 98.5691 131.72C98.4283 131.673 98.3344 131.814 98.5222 131.861C99.8365 132.142 101.245 132.048 102.606 132.048C104.014 132.001 105.422 131.907 106.831 131.861C108.286 131.767 109.694 131.673 111.102 131.626C111.822 131.595 112.526 131.579 113.214 131.579C113.872 131.579 114.576 131.532 115.233 131.579C115.843 131.626 116.453 131.814 116.829 132.33C117.251 132.752 117.533 133.41 117.58 133.973C117.58 134.63 117.157 135.099 116.688 135.475C116.219 135.804 115.702 135.991 115.186 136.132C114.012 136.414 112.792 136.367 111.572 136.367C110.163 136.367 108.755 136.336 107.347 136.273C104.531 136.085 101.714 135.804 98.8977 135.475C98.5535 135.444 98.2093 135.412 97.865 135.381C97.7242 135.381 97.5834 135.522 97.7712 135.522C100.681 135.85 103.592 136.179 106.502 136.367C107.942 136.461 109.397 136.508 110.867 136.508C112.135 136.555 113.449 136.602 114.717 136.367C115.749 136.226 116.97 135.804 117.58 134.912C117.955 134.395 117.908 133.785 117.674 133.222Z" fill="#BFCFE9"/>
<path d="M116.031 133.691C115.984 133.55 115.796 133.503 115.655 133.457C115.421 133.363 115.233 133.363 114.998 133.316C114.498 133.284 113.997 133.253 113.496 133.222C112.464 133.175 111.431 133.222 110.398 133.269C108.082 133.394 105.767 133.535 103.451 133.691C103.263 133.691 103.263 133.832 103.451 133.832C105.391 133.707 107.331 133.597 109.272 133.503C111.196 133.41 113.168 133.222 115.092 133.503C115.233 133.503 115.749 133.55 115.702 133.738C115.702 133.832 115.609 133.879 115.515 133.926C115.452 133.989 115.358 134.035 115.233 134.067C114.857 134.208 114.388 134.161 113.966 134.161C112.996 134.223 112.025 134.27 111.055 134.301C109.131 134.395 107.206 134.489 105.282 134.536C103.076 134.583 100.869 134.583 98.6632 134.348C98.5693 134.348 98.4285 134.489 98.6162 134.489C102.7 134.912 106.878 134.63 110.961 134.442C111.994 134.411 113.011 134.38 114.013 134.348C114.435 134.301 114.857 134.301 115.28 134.208C115.436 134.176 115.593 134.129 115.749 134.067C115.843 133.973 116.031 133.832 116.031 133.691Z" fill="#BFCFE9"/>
<path d="M86.787 115.291C86.5679 115.291 86.3489 115.291 86.1298 115.291C82.4685 115.291 78.8072 115.291 75.1459 115.291C71.9539 115.291 68.5743 115.479 65.3823 115.197C64.9599 115.15 64.5374 115.056 64.3027 114.775C64.0211 114.446 64.1619 113.883 64.3497 113.554C64.5844 113.179 64.9599 112.85 65.5232 112.803C64.7721 112.709 64.1619 112.24 64.115 111.723C64.0211 111.207 64.4905 110.644 65.1946 110.456C63.5986 109.705 64.3966 107.827 66.2742 107.827H86.787C88.7115 107.827 90.2606 108.954 90.2606 110.362V112.803C90.2606 114.211 88.7115 115.291 86.787 115.291Z" fill="white"/>
<path d="M89.0404 111.676C88.7588 111.207 88.3832 110.785 87.8199 110.503C87.2097 110.221 86.4587 110.127 85.8015 110.127C84.9097 110.127 84.0648 110.127 83.2198 110.127C81.4361 110.174 79.6524 110.221 77.9156 110.315C76.1319 110.362 74.3482 110.456 72.5644 110.503C71.6882 110.503 70.812 110.519 69.9358 110.55C69.0439 110.55 68.199 110.55 67.3072 110.503C66.9003 110.472 66.4779 110.425 66.0398 110.362C65.899 110.362 65.7112 110.456 65.9459 110.503C67.5888 110.738 69.2786 110.691 70.9215 110.644C72.6114 110.612 74.3012 110.566 75.9911 110.503C77.7122 110.44 79.4177 110.378 81.1075 110.315C81.9837 110.284 82.8443 110.268 83.6892 110.268C84.4872 110.268 85.2852 110.221 86.0832 110.268C86.8342 110.315 87.5383 110.503 88.0546 110.925C88.524 111.301 88.8996 111.864 88.9465 112.334C88.9465 112.897 88.4302 113.319 87.8669 113.648C87.3036 113.93 86.6934 114.117 86.0362 114.211C84.628 114.446 83.1729 114.446 81.7177 114.446C80.0279 114.415 78.3224 114.368 76.6013 114.305C73.2216 114.164 69.8419 113.93 66.4622 113.648C66.0241 113.617 65.6017 113.585 65.1949 113.554C65.0071 113.554 64.8663 113.648 65.101 113.695C68.5745 113.93 72.0481 114.258 75.5686 114.399C77.321 114.493 79.0891 114.54 80.8728 114.54C82.3749 114.54 83.9709 114.587 85.4729 114.446C86.7403 114.258 88.1955 113.93 88.9465 113.132C89.369 112.709 89.322 112.146 89.0404 111.676Z" fill="#BFCFE9"/>
<path d="M87.0218 112.099C87.0218 111.958 86.7871 111.911 86.6463 111.864C86.3647 111.817 86.083 111.77 85.8014 111.77C85.2068 111.739 84.6122 111.708 84.0177 111.676C82.7972 111.676 81.5298 111.676 80.3094 111.723C77.493 111.849 74.6922 111.974 71.9071 112.099C71.7194 112.099 71.7194 112.24 71.9071 112.193C74.2541 112.099 76.5855 112.005 78.9012 111.911C81.2482 111.817 83.6421 111.676 85.9422 111.911C86.083 111.911 86.6932 111.958 86.6932 112.146C86.6932 112.193 86.5524 112.287 86.4585 112.287C86.3647 112.349 86.2551 112.396 86.13 112.427C85.6136 112.521 85.0973 112.521 84.6279 112.521C83.4387 112.553 82.2652 112.584 81.1074 112.615C78.7604 112.709 76.4603 112.803 74.1133 112.85C71.4377 112.897 68.8091 112.85 66.1804 112.662C65.9927 112.662 65.8519 112.756 66.0866 112.803C71.0153 113.178 76.0379 112.897 80.9666 112.756C82.187 112.725 83.4074 112.693 84.6279 112.662C85.1442 112.615 85.6606 112.662 86.1769 112.568C86.3647 112.537 86.5368 112.474 86.6932 112.38C86.8341 112.334 87.0688 112.193 87.0218 112.099Z" fill="#BFCFE9"/>
<path d="M86.787 107.827C86.5679 107.827 86.3489 107.827 86.1298 107.827C82.4685 107.827 78.8072 107.827 75.1459 107.827C71.9539 107.827 68.5743 108.015 65.3823 107.733C64.9599 107.687 64.5374 107.593 64.3027 107.311C64.0211 106.982 64.1619 106.419 64.3497 106.091C64.5844 105.715 64.9599 105.386 65.5232 105.34C64.7721 105.246 64.1619 104.776 64.115 104.26C64.0211 103.697 64.4905 103.18 65.1946 102.993C63.5986 102.241 64.3966 100.364 66.2742 100.364H86.787C88.7115 100.364 90.2606 101.49 90.2606 102.899V105.34C90.2606 106.701 88.7115 107.827 86.787 107.827Z" fill="white"/>
<path d="M89.0404 104.213C88.7588 103.744 88.3832 103.321 87.8199 103.039C87.2097 102.758 86.4587 102.664 85.8015 102.664C84.9097 102.617 84.0648 102.664 83.2198 102.664C81.4361 102.711 79.6524 102.758 77.9156 102.805C76.1319 102.899 74.3482 102.993 72.5644 103.039C71.6882 103.039 70.812 103.055 69.9358 103.086C69.0439 103.086 68.199 103.086 67.3072 103.039C66.9003 103.008 66.4779 102.961 66.0398 102.899C65.899 102.899 65.7112 102.993 65.9459 103.039C67.5888 103.274 69.2786 103.227 70.9215 103.18C72.6114 103.149 74.3012 103.102 75.9911 103.039C77.7122 102.946 79.4177 102.883 81.1075 102.852C81.9837 102.82 82.8443 102.805 83.6892 102.805C84.4872 102.758 85.2852 102.758 86.0832 102.805C86.8342 102.852 87.5383 103.039 88.0546 103.462C88.524 103.837 88.8996 104.354 88.9465 104.87C88.9465 105.433 88.4302 105.856 87.8669 106.184C87.3036 106.466 86.6934 106.607 86.0362 106.748C84.628 106.982 83.1729 106.982 81.7177 106.935C80.0279 106.935 78.3224 106.904 76.6013 106.842C73.2216 106.701 69.8419 106.419 66.4622 106.184C66.0241 106.153 65.6017 106.122 65.1949 106.091C65.0071 106.091 64.8663 106.184 65.101 106.231C68.5745 106.466 72.0481 106.748 75.5686 106.935C77.321 106.998 79.0891 107.045 80.8728 107.076C82.3749 107.076 83.9709 107.123 85.4729 106.982C86.7403 106.795 88.1955 106.466 88.9465 105.668C89.369 105.246 89.322 104.682 89.0404 104.213Z" fill="#BFCFE9"/>
<path d="M87.0218 104.589C87.0218 104.495 86.7871 104.448 86.6463 104.401C86.3647 104.354 86.083 104.307 85.8014 104.307C85.2068 104.276 84.6122 104.244 84.0177 104.213C82.7972 104.213 81.5298 104.213 80.3094 104.26C77.493 104.385 74.6922 104.51 71.9071 104.635C71.7194 104.635 71.7194 104.776 71.9071 104.729C74.2541 104.635 76.5855 104.542 78.9012 104.448C81.2482 104.354 83.6421 104.213 85.9422 104.448C86.083 104.448 86.6932 104.495 86.6932 104.682C86.6932 104.729 86.5524 104.823 86.4585 104.823C86.3647 104.886 86.2551 104.933 86.13 104.964C85.6136 105.058 85.0973 105.058 84.6279 105.058C83.4387 105.089 82.2652 105.121 81.1074 105.152C78.7604 105.246 76.4603 105.34 74.1133 105.34C71.4377 105.433 68.8091 105.387 66.1804 105.199C65.9927 105.199 65.8519 105.293 66.0866 105.34C71.0153 105.715 76.0379 105.433 80.9666 105.293C82.187 105.261 83.4074 105.23 84.6279 105.199C85.1442 105.152 85.6606 105.152 86.1769 105.105C86.3647 105.074 86.5368 105.011 86.6932 104.917C86.8341 104.87 87.0688 104.729 87.0218 104.589Z" fill="#BFCFE9"/>
<path d="M86.7873 107.78H67.0725C66.8847 107.78 66.8847 107.968 67.0725 107.968H86.7873C86.975 107.968 86.975 107.78 86.7873 107.78Z" fill="#BFCFE9"/>
<path d="M85.1442 92.9004H65.9927C65.2886 92.9004 64.7722 92.384 64.7722 91.6799C64.7722 91.0228 65.2886 90.4595 65.9927 90.4595H85.1442C85.8483 90.4595 86.3646 91.0228 86.3646 91.6799C86.3646 92.384 85.8483 92.9004 85.1442 92.9004Z" fill="white"/>
<path d="M85.1442 90.4596H65.9927C65.2886 90.4596 64.7722 89.9432 64.7722 89.2391C64.7722 88.582 65.2886 88.0187 65.9927 88.0187H85.1442C85.8483 88.0187 86.3646 88.582 86.3646 89.2391C86.3646 89.9432 85.8483 90.4596 85.1442 90.4596Z" fill="white"/>
<path d="M85.1442 88.0186H65.9927C65.2886 88.0186 64.7722 87.5023 64.7722 86.7982C64.7722 86.141 65.2886 85.5778 65.9927 85.5778H85.1442C85.8483 85.5778 86.3646 86.141 86.3646 86.7982C86.3646 87.5023 85.8483 88.0186 85.1442 88.0186Z" fill="white"/>
<path d="M84.2994 87.8778H66.7907C66.603 87.8778 66.603 88.0186 66.7907 88.0186H84.2994C84.4402 88.0186 84.4402 87.8778 84.2994 87.8778Z" fill="#BFCFE9"/>
<path d="M84.6748 90.4126H66.6967C66.509 90.4126 66.509 90.6004 66.6967 90.6004H84.6748C84.8156 90.6004 84.8156 90.4126 84.6748 90.4126Z" fill="#BFCFE9"/>
<path d="M116.031 57.4138C114.294 58.775 112.37 58.7281 110.398 59.3383C108.614 59.9016 106.596 59.8547 104.718 59.7608C102.935 59.62 101.01 59.2444 99.2264 59.4791C97.208 59.7138 95.1426 59.6669 93.1242 59.7138C89.1499 59.839 85.1757 59.8547 81.2014 59.7608C79.934 59.7608 78.9013 59.7138 77.7748 59.2444C76.5543 58.775 75.3808 58.3056 74.3012 57.6485C72.7991 56.8036 71.4379 55.6301 70.5929 54.128C69.4194 52.0157 73.1747 50.983 74.5829 50.4197C77.0707 49.4809 79.6524 48.8238 82.1871 48.2135C85.2852 47.4156 88.4771 46.6176 91.669 46.8053C92.467 46.8523 93.265 46.9461 94.016 47.04C95.9406 47.2747 97.7712 47.4156 99.6488 47.838C101.151 48.2135 102.653 48.6829 104.108 49.1523C107.394 50.232 110.68 51.2646 113.825 52.6728C115.89 53.5647 118.706 55.3484 116.031 57.4138Z" fill="white"/>
<path d="M118.659 64.2201C118.613 63.6099 118.049 63.1405 117.533 62.8119C115.327 61.4037 112.698 60.8404 110.116 60.3241C108.364 59.9798 106.612 59.6356 104.859 59.2914C104.061 59.1036 103.31 58.822 102.512 58.5873C101.542 58.3369 100.588 58.1022 99.6488 57.8832C97.7712 57.4607 95.9405 57.3199 94.016 57.0852C93.2649 56.9913 92.4669 56.8974 91.669 56.8505C88.477 56.6627 85.2851 57.4607 82.1871 58.2587C79.0421 59.0567 75.8502 60.1832 72.6113 60.6057C71.7194 60.6996 70.8276 60.7465 69.9827 61.0751C69.8418 61.122 69.701 61.2159 69.6071 61.3098C69.4663 61.4506 69.4194 61.5914 69.4194 61.7792C69.3255 62.5302 69.701 63.2813 70.0765 63.9384C71.1562 65.7222 72.4705 67.412 73.9256 68.9141C74.395 69.4148 74.9114 69.8059 75.4746 70.0876H110.116C111.149 69.7121 112.135 69.1488 113.121 68.5386C113.965 68.0222 114.81 67.5059 115.655 66.9426C115.874 66.7861 116.093 66.6297 116.312 66.4732C117.017 66.0038 118.706 65.1589 118.659 64.2201Z" fill="white"/>
<path d="M107.065 59.7138C103.404 59.1505 99.6957 59.1036 96.0344 59.2914C92.2792 59.4322 88.5709 59.7138 84.8627 59.7138C82.7973 59.7138 80.7319 59.6199 78.6666 59.3852C78.5727 59.3383 78.4319 59.3383 78.3849 59.4322C78.338 59.5261 78.4788 59.573 78.5258 59.573C82.234 60.0424 85.9423 59.9955 89.6505 59.8077C93.3588 59.6199 97.0671 59.3383 100.775 59.4322C102.841 59.4791 104.906 59.6199 106.971 59.9485C107.018 59.9485 107.206 59.9485 107.206 59.8546C107.253 59.7608 107.159 59.7608 107.065 59.7138Z" fill="#E9CFEE"/>
<path d="M81.4358 65.1119C78.6194 64.9711 75.7561 64.7833 73.0335 63.9384C72.2825 63.7194 71.5471 63.4221 70.8274 63.0466C70.7335 62.9996 70.5927 62.9996 70.4988 63.0466C70.4518 63.0935 70.4049 63.1874 70.4988 63.2343C73.1274 64.5486 76.0377 64.9711 78.948 65.1589C79.7616 65.2214 80.5909 65.284 81.4358 65.3466C81.4828 65.3466 81.6236 65.2997 81.6236 65.2058C81.6236 65.1119 81.4828 65.1119 81.4358 65.1119Z" fill="#E7D4EC"/>
<path d="M115.843 64.314C115.796 64.2671 115.655 64.2671 115.561 64.2671C114.763 64.361 113.918 64.361 113.12 64.361C112.276 64.361 111.446 64.361 110.633 64.361C108.943 64.361 107.269 64.3923 105.61 64.4548C103.951 64.5174 102.293 64.6113 100.634 64.7365C98.9446 64.8773 97.3017 65.0651 95.6118 65.2059C93.7342 65.3467 91.8566 65.4875 90.026 65.4406C89.9321 65.4406 89.7913 65.4406 89.7913 65.5345C89.7913 65.6284 89.9321 65.6283 90.026 65.6283C93.3587 65.7692 96.6914 65.2998 100.024 65.0181C103.373 64.7365 106.721 64.58 110.069 64.5487C111.039 64.5487 111.994 64.5644 112.933 64.5957C113.871 64.5957 114.763 64.5957 115.702 64.4548C115.749 64.4548 115.89 64.4079 115.843 64.314Z" fill="#E7D4EC"/>
<path d="M84.6748 53.4239C84.6748 53.377 84.487 53.377 84.4401 53.377C81.0604 53.8464 77.6807 54.2219 74.3011 53.8933C73.3623 53.7681 72.4235 53.596 71.4847 53.377C71.3908 53.377 71.25 53.377 71.203 53.4239C71.1091 53.5178 71.203 53.5647 71.25 53.5647C74.6296 54.4096 78.1501 54.3158 81.6237 53.9402C82.5938 53.8464 83.5639 53.7212 84.534 53.5647C84.5809 53.5647 84.7217 53.5178 84.6748 53.4239Z" fill="#E7D4EC"/>
<path d="M100.541 54.2687C98.3813 53.6115 96.0813 53.283 93.8282 53.283C93.171 53.283 92.5138 53.2986 91.8567 53.3299C91.7628 53.3299 91.6689 53.3768 91.7159 53.4707C91.7159 53.5646 91.9036 53.5646 91.9506 53.5646C94.767 53.3299 97.6303 53.6115 100.353 54.4565C100.4 54.4565 100.588 54.4565 100.634 54.4095C100.681 54.3156 100.634 54.2687 100.541 54.2687Z" fill="#E7D4EC"/>
<path d="M115.045 55.0198C113.402 55.3014 111.759 55.5831 110.163 55.3014C110.069 55.3014 109.928 55.3014 109.882 55.3953C109.835 55.4892 109.975 55.5361 110.022 55.5361C111.618 55.7708 113.261 55.5831 114.81 55.3014C114.857 55.3953 115.233 55.4422 115.28 55.3014C115.28 55.2388 115.28 55.1919 115.28 55.1606C115.327 55.0198 115.045 55.0198 115.045 55.0198Z" fill="#E7D4EC"/>
<path d="M34.0736 118.858C33.8858 117.685 33.745 116.464 33.6511 115.291C33.6511 115.15 33.6042 115.009 33.6981 114.868C33.745 114.774 33.8858 114.727 33.9797 114.681C36.092 113.601 38.3451 112.521 40.7391 112.568C42.4759 112.568 42.5697 114.211 42.9922 115.619C43.4616 117.215 43.8371 118.858 44.2126 120.548C44.9167 123.787 45.48 127.12 46.2311 130.405C46.7474 132.565 47.3576 134.724 48.0148 136.883C48.3277 137.947 48.6563 139.011 49.0005 140.075C49.1883 140.732 49.9393 141.624 49.1883 142.094C48.2964 142.704 47.2638 142.938 46.2311 142.892C45.8086 142.892 45.0576 142.845 44.682 142.61C44.3535 142.375 44.2126 141.859 44.0718 141.436C43.4147 139.887 42.7106 138.338 41.9126 136.836C40.3636 133.785 38.6268 130.875 37.1247 127.824C35.8573 125.195 34.7308 122.473 34.2144 119.562C34.1518 119.343 34.1049 119.109 34.0736 118.858Z" fill="#FDB082"/>
<path d="M55.0088 146.271C54.821 146.412 54.5394 146.459 54.3985 146.459C53.6788 146.553 52.9591 146.584 52.2393 146.553C51.4413 146.553 50.6903 146.459 49.8923 146.365C48.4215 146.209 46.9507 146.052 45.4799 145.896C45.2452 145.896 45.0105 145.849 44.7758 145.755C44.3064 145.567 44.0248 145.145 43.884 144.675C43.6023 143.643 44.0248 142.61 44.4003 141.671C44.7758 140.826 45.433 140.451 46.3249 140.31C47.4984 140.122 48.531 140.826 49.4698 141.436C50.5964 142.094 51.5821 142.938 52.5679 143.783C53.1781 144.347 53.7883 144.91 54.5863 145.192C54.7741 145.239 54.9618 145.285 55.1496 145.426C55.3373 145.52 55.4312 145.755 55.3843 145.943C55.2904 146.083 55.1496 146.224 55.0088 146.271Z" fill="#FDB082"/>
<path d="M57.4027 146.224C57.3088 145.99 57.0741 145.849 56.8394 145.708C56.0415 145.286 55.1027 145.145 54.3047 145.52C53.2251 145.99 52.0515 146.037 50.878 145.849C49.7515 145.661 48.6719 145.192 47.6392 144.628C47.029 144.347 46.4657 144.018 45.9493 143.596C45.4799 143.22 45.0575 142.657 44.5411 142.469C43.3207 142.047 43.1329 144.159 43.2738 144.91C43.3207 145.239 43.4615 145.661 43.6962 145.943C43.9309 146.177 44.2126 146.365 44.4473 146.6C44.7289 146.944 44.9793 147.32 45.1983 147.726C45.433 148.149 45.5269 148.618 45.7616 149.041C45.8555 149.275 45.8085 149.228 45.9963 149.228C46.3249 149.228 46.7473 149.041 47.0759 148.947C47.1228 148.947 46.6534 147.586 46.6065 147.492C46.5596 147.351 46.5126 147.163 46.6065 147.022C46.6534 146.928 46.7473 146.881 46.8412 146.881C47.3576 146.647 48.1555 146.741 48.7188 146.835C49.376 146.928 50.0331 147.163 50.6903 147.398C51.4413 147.679 52.0516 147.773 52.8026 147.586L53.6475 147.398C54.1482 147.273 54.6333 147.163 55.1027 147.069C55.5408 146.944 55.9632 146.835 56.37 146.741C56.5578 146.694 57.4497 146.6 57.4497 146.365C57.4497 146.334 57.434 146.287 57.4027 146.224Z" fill="#D99AD2"/>
<path d="M10.4627 113.085C11.0729 112.052 11.7301 111.066 12.4342 110.034C12.4811 109.94 12.575 109.799 12.7158 109.752C12.8097 109.752 12.9505 109.752 13.0913 109.799C15.3914 110.362 17.7853 110.972 19.616 112.521C20.9303 113.648 19.9446 114.962 19.3813 116.277C18.6772 117.826 17.9262 119.328 17.1751 120.83C15.5792 123.834 13.8893 126.744 12.3872 129.701C11.4015 131.72 10.4627 133.738 9.61778 135.804C9.14838 136.836 8.71027 137.869 8.30346 138.902C8.02182 139.559 8.02182 140.732 7.12996 140.592C6.09728 140.498 5.11154 140.028 4.3605 139.324C4.03192 139.043 3.46864 138.526 3.37476 138.104C3.28088 137.681 3.46864 137.212 3.60946 136.789C4.17274 135.193 4.5952 133.551 4.97072 131.908C5.72176 128.575 6.2381 125.195 7.03608 121.909C7.74018 119.093 8.67898 116.277 10.0872 113.695C10.2124 113.476 10.3375 113.272 10.4627 113.085Z" fill="#FDB082"/>
<path d="M8.91367 147.539C8.72591 147.492 8.49121 147.398 8.35039 147.304C7.75582 146.897 7.17689 146.459 6.61361 145.99C6.05033 145.473 5.48705 144.91 4.97071 144.347C3.93803 143.283 2.90535 142.219 1.87266 141.155C1.6849 140.967 1.49714 140.779 1.40326 140.592C1.16856 140.169 1.26244 139.606 1.4502 139.183C1.87267 138.245 2.85841 137.681 3.75027 137.212C4.54825 136.789 5.29929 136.93 6.09727 137.4C7.08301 138.01 7.45853 139.183 7.78711 140.263C8.20957 141.483 8.49121 142.751 8.63203 144.065C8.77285 144.863 8.86673 145.708 9.28919 146.412C9.43001 146.6 9.57083 146.741 9.61777 146.975C9.66471 147.163 9.61777 147.398 9.43001 147.492C9.28919 147.586 9.10143 147.586 8.91367 147.539Z" fill="#FDB082"/>
<path d="M10.8382 149.041C10.8851 148.759 10.7913 148.525 10.6974 148.29C10.3688 147.445 9.75857 146.694 8.86671 146.459C7.78709 146.178 6.80135 145.473 6.05031 144.582C5.29927 143.69 4.78293 142.657 4.31353 141.577C4.07883 140.967 3.84413 140.31 3.70331 139.653C3.60943 139.09 3.60943 138.385 3.32779 137.916C2.71757 136.79 1.21548 138.292 0.839964 138.949C0.652204 139.277 0.464444 139.653 0.464444 140.028C0.511384 140.357 0.605264 140.686 0.605264 141.014C0.605264 141.484 0.558324 141.937 0.464444 142.375C0.370564 142.845 0.182805 143.267 0.041985 143.737C-0.00495499 143.971 -0.0518965 143.877 0.135864 144.018C0.417504 144.253 0.793025 144.347 1.12161 144.488C1.16855 144.535 1.68489 143.173 1.73183 143.079C1.77877 142.939 1.87265 142.798 2.01347 142.704C2.10735 142.704 2.20123 142.704 2.29511 142.751C2.85839 142.939 3.37473 143.502 3.75025 143.924C4.21965 144.441 4.54823 145.004 4.87681 145.614C5.29927 146.318 5.67479 146.788 6.37889 147.116L7.17687 147.539C7.61498 147.758 8.05308 147.977 8.49119 148.196C8.89801 148.384 9.30482 148.587 9.71163 148.806C9.85245 148.853 10.6035 149.369 10.7443 149.182C10.7756 149.15 10.8069 149.103 10.8382 149.041Z" fill="#D99AD2"/>
<path d="M13.9362 65.816C13.3729 70.0875 13.5137 74.4999 13.9362 78.7714C14.4525 84.4043 14.1709 89.9901 12.7627 95.4352C11.3232 101.193 9.68028 106.889 7.83398 112.521C7.55234 113.429 7.25505 114.336 6.94212 115.244C6.89518 115.385 6.84824 115.526 6.89518 115.666C6.98906 115.807 7.12988 115.854 7.31764 115.901C11.6831 117.215 16.1893 118.107 20.6486 119.14C21.8221 119.375 22.9487 119.609 24.1691 119.703C26.2345 119.797 28.2998 119.328 30.3652 118.905C35.7633 117.779 41.3492 117.028 46.7473 118.013C46.7942 118.013 46.7473 115.901 46.7003 115.713C45.1044 107.687 43.1798 99.6598 41.3961 91.633C40.5512 87.9248 39.1899 84.3573 38.2981 80.6021C37.4062 76.8938 36.749 73.1386 36.2327 69.3834C35.9041 67.0834 35.4347 64.9711 35.4347 62.671C35.4347 60.4179 35.4347 58.0709 34.7776 55.8647C33.2755 50.8421 24.5916 51.9687 20.7894 53.0953C18.9588 53.6585 17.0342 54.879 16.2832 56.7096C15.3444 59.0097 14.6403 61.3567 14.2178 63.7976C14.0926 64.486 13.9988 65.1588 13.9362 65.816Z" fill="#D99AD2"/>
<path d="M38.439 35.2581C38.3921 34.4132 38.2043 33.6152 37.8288 32.8642C36.3737 30.0478 34.4961 27.466 32.6185 24.9782C32.3368 24.634 32.0708 24.2741 31.8205 23.8986C31.3041 23.2414 31.1633 22.5843 30.3184 22.2088C29.8959 22.021 29.4265 21.9271 28.9571 21.8332C27.6898 21.4577 26.5163 20.8006 25.3428 20.2373C24.1223 19.674 22.8549 19.2046 21.5406 19.3454C21.3529 19.3454 21.212 19.3454 21.0243 19.4393C20.8835 19.5801 20.7896 19.7209 20.6957 19.9087C20.5549 20.1903 20.3671 20.5189 20.2263 20.8006C20.1324 20.9883 20.0855 21.3638 19.9916 21.5047C17.8793 24.368 16.565 27.7008 16.1425 31.2213C15.6262 35.1642 15.5792 39.1072 15.9078 43.0501C16.2364 46.6645 16.4242 50.3258 16.7058 53.9402C16.7058 54.1749 16.7527 54.4096 16.8466 54.5974C17.316 55.3484 20.5549 55.1137 21.3998 55.2076C23.2774 55.3641 25.1394 55.5205 26.9857 55.677C28.6129 55.8022 30.2402 55.9274 31.8674 56.0525C32.9001 56.1464 34.9655 56.8505 35.6226 55.8648C35.8573 55.5362 35.9512 55.1137 36.0451 54.7382C36.5145 52.6729 36.7961 50.6544 36.9839 48.5421C37.1717 46.5706 37.688 44.5992 38.0166 42.6277C38.2513 40.9378 38.486 39.248 38.486 37.5582C38.5329 36.8071 38.5329 36.0091 38.439 35.2581Z" fill="#D99AD2"/>
<path d="M31.1632 18.2188C31.038 18.563 30.9285 18.9229 30.8346 19.2984C30.6469 19.8617 30.506 20.4406 30.4122 21.0352C30.3183 21.7393 30.2713 22.4434 29.9897 23.1006C29.9428 23.2883 29.8019 23.4761 29.6142 23.57C29.4734 23.6169 29.3325 23.6169 29.1917 23.57C28.5346 23.523 27.8774 23.4291 27.2672 23.1944C26.2345 22.8189 25.2018 22.4903 24.1691 22.2556C23.0426 21.974 21.8221 21.974 21.8221 20.4719C21.8691 19.7678 22.1507 19.1576 22.4793 18.5474C23.0426 17.4208 23.6059 16.2786 24.1691 15.1208C24.5916 14.3228 24.9671 13.1493 25.859 12.7268C26.61 12.3513 27.5958 12.5391 28.3468 12.9615C29.0509 13.337 29.4264 13.9003 29.9897 14.4167C30.4122 14.8391 30.6938 14.7452 31.2102 14.9799C31.4449 15.0738 31.5857 15.4024 31.6796 15.684C31.6796 15.7153 31.6796 15.7466 31.6796 15.7779C31.7108 15.8405 31.7265 15.9031 31.7265 15.9657C31.8204 16.7167 31.4448 17.5147 31.1632 18.2188Z" fill="#FDB082"/>
<path d="M31.1632 18.2188C31.038 18.563 30.9285 18.9229 30.8346 19.2984C30.553 19.2358 30.287 19.1263 30.0366 18.9699C29.5203 18.6882 29.1447 18.2658 28.7692 17.8902C28.2529 17.327 27.4549 16.1535 28.2059 15.4963C28.4876 15.2616 28.8631 15.2616 29.1917 15.2616C29.5672 15.2616 29.9897 15.2616 30.3652 15.4494C30.506 15.4963 30.5999 15.6371 30.7877 15.6371C31.0693 15.6841 31.4918 15.5432 31.6795 15.7779C31.7108 15.8405 31.7265 15.9031 31.7265 15.9657C31.8203 16.7167 31.4448 17.5147 31.1632 18.2188Z" fill="#FDB082"/>
<path d="M34.2144 4.37152C34.4335 4.77834 34.59 5.2321 34.6838 5.73279C34.8247 6.53077 34.7777 7.32875 34.7777 8.12673C34.7777 8.83083 34.7308 9.72269 35.341 10.1921C35.873 10.5989 36.405 11.0214 36.937 11.4595C37.0778 11.5534 37.2186 11.6472 37.2655 11.7881C37.4533 12.1166 37.2655 12.3044 37.0308 12.4922C36.7961 12.7269 36.5145 12.9146 36.3267 13.1024C35.5757 13.8534 35.7635 14.8861 35.6696 15.8249C35.5288 16.7168 35.1063 17.4678 34.2144 17.8433C32.7593 18.4066 30.9286 17.8433 29.6143 17.1392C29.0197 16.8263 28.4878 16.4351 28.0183 15.9657C27.5959 15.5902 27.0795 15.0269 26.8448 14.4636C26.5632 13.7595 25.8591 13.8065 25.2489 13.9942C21.9161 14.6983 20.8835 11.1309 20.9773 8.54919C21.0243 7.42263 21.1651 6.20219 21.5406 5.12257C21.9631 3.90213 22.6672 3.2919 23.7937 2.72862C25.2958 1.8837 27.0795 1.41431 28.8163 1.41431C29.7082 1.41431 30.6001 1.55513 31.398 1.88371C32.6185 2.35311 33.6042 3.24496 34.2144 4.37152Z" fill="#FDB082"/>
<path d="M34.1206 7.51646C34.0893 7.54775 34.058 7.57904 34.0267 7.61034C33.9954 7.64163 33.9485 7.65727 33.8859 7.65727C33.3696 7.75115 32.8532 7.89198 32.3838 8.07974C32.1491 8.17362 31.8205 8.45526 31.5858 8.40832C31.5389 8.36138 31.5858 8.31443 31.6328 8.26749C32.1491 7.65727 32.9471 6.95317 33.839 7.09399C33.9329 7.14093 34.0737 7.18788 34.1206 7.28176C34.1206 7.34434 34.1206 7.40693 34.1206 7.46951C34.1206 7.46951 34.1206 7.48516 34.1206 7.51646Z" fill="#474643"/>
<path d="M33.6979 9.3941C33.604 9.1594 33.3693 9.01857 33.1346 9.06551C32.853 9.20633 32.8999 9.76961 32.9938 10.0043C32.9938 10.3329 33.3693 10.4268 33.5571 10.239C33.7918 10.0513 33.7918 9.6288 33.6979 9.3941Z" fill="#221D38"/>
<path d="M27.8776 11.1778C27.4082 12.5391 25.6714 16.6229 23.5591 15.1208C23.3244 14.933 23.1366 14.6514 22.9489 14.4167C21.4937 12.3983 19.9917 10.239 19.757 7.79814C19.5692 6.20218 19.9447 4.55928 20.7427 3.24496C22.1978 0.897958 24.6857 -0.0877804 27.3612 0.00609968C29.5674 0.0999798 31.492 0.944898 33.2288 2.30616C33.8859 2.86944 35.2941 5.02868 33.4635 4.2307C33.2757 4.18376 32.0083 3.71436 32.0083 3.5266C32.0083 4.13682 31.7736 4.7001 31.492 5.21644C30.8818 6.43688 30.1307 7.56344 29.2858 8.59612C28.9572 8.97164 28.4409 9.39411 28.2531 9.86351C28.0654 10.239 28.0184 10.7554 27.8776 11.1778Z" fill="#474643"/>
<path d="M17.8324 14.1351C17.5507 14.7922 17.4099 15.5433 17.6446 16.2474C17.8793 17.0454 18.5834 17.6556 19.3814 17.9372C20.1794 18.2189 21.0712 18.125 21.8692 17.8433C23.0897 17.4209 24.1223 16.4351 24.6856 15.2147C24.7326 15.0269 24.8264 14.8392 24.6856 14.6983C24.6387 14.5575 24.4979 14.5575 24.404 14.4636C24.3101 14.3698 24.3101 14.3228 24.2632 14.182C24.1693 13.9004 23.9346 13.7126 23.7938 13.4779C23.4652 12.9146 22.9958 12.3983 22.5733 11.9289C22.3856 11.6942 22.1978 11.4595 22.01 11.2717C21.7753 11.084 21.5406 11.1309 21.259 11.1778C19.8508 11.4125 18.5365 12.6799 17.9263 13.9004C17.895 13.9943 17.8637 14.0725 17.8324 14.1351Z" fill="#474643"/>
<path d="M28.9572 9.95737C28.9259 9.89478 28.8946 9.83219 28.8633 9.7696C28.5347 9.25326 27.8776 9.01857 27.2674 9.15939C26.1877 9.39409 26.0939 10.3329 26.2816 11.2717C26.4694 12.0697 26.798 12.8676 27.3143 13.5717C27.549 13.9473 27.9245 14.2759 28.347 14.182C28.4878 14.135 28.6286 13.9942 28.7694 13.8534C29.1919 13.3371 29.3797 12.6799 29.3797 12.0227C29.3797 11.6003 29.2388 11.1778 29.1919 10.8023C29.145 10.5206 29.098 10.1921 28.9572 9.95737Z" fill="#FDB082"/>
<path d="M34.449 14.8861C34.3551 14.8861 34.2613 14.8705 34.1674 14.8392C34.0422 14.8079 33.9327 14.761 33.8388 14.6984C33.698 14.5575 33.5102 14.4167 33.4633 14.182C33.4163 14.0882 33.1347 14.1351 33.1816 14.229C33.3694 14.7453 33.8857 15.027 34.449 15.027C34.496 15.027 34.5898 14.98 34.5898 14.9331C34.5898 14.8861 34.449 14.8861 34.449 14.8861Z" fill="#FDB082"/>
<path d="M31.2104 3.19802C30.4594 5.31032 29.3328 7.42263 27.3613 8.54919C27.2205 8.64307 27.5021 8.73695 27.5491 8.69001C29.5675 7.51651 30.741 5.40421 31.4921 3.24497C31.4921 3.15109 31.2104 3.10414 31.2104 3.19802Z" fill="#474643"/>
<path d="M29.7082 4.46545C29.3796 5.4512 28.5347 6.20224 27.6898 6.81246C27.6428 6.8594 27.7367 6.90634 27.7367 6.90634C27.8306 6.90634 27.8775 6.90633 27.9714 6.85939C28.7694 6.24917 29.6613 5.49813 29.9898 4.51239C30.0368 4.37157 29.7551 4.37157 29.7082 4.46545Z" fill="#474643"/>
<path d="M23.3244 1.60203C22.3387 2.25919 21.4938 3.15106 20.9305 4.23068C20.3672 5.40418 20.2264 6.7185 20.6019 7.98588C20.6019 8.07976 20.8836 8.07976 20.8836 7.93894C20.508 6.7185 20.6489 5.40418 21.2121 4.27761C21.7285 3.19799 22.5734 2.35307 23.5591 1.69591C23.7 1.60203 23.4183 1.55509 23.3244 1.60203Z" fill="#474643"/>
<path d="M22.7612 4.08987C22.1979 4.79397 21.9163 5.73277 22.0571 6.62463C22.0571 6.71851 22.3388 6.71851 22.3388 6.62463C22.1979 5.73277 22.4326 4.84091 22.9959 4.13681C23.0898 4.04293 22.8082 3.99599 22.7612 4.08987Z" fill="#474643"/>
<path d="M19.6631 12.3983C18.4896 13.7126 18.3487 15.731 19.4284 17.1392C19.4753 17.2331 19.757 17.1862 19.71 17.0923C18.6773 15.731 18.7243 13.7596 19.8978 12.4922C19.9917 12.3983 19.71 12.3514 19.6631 12.3983Z" fill="#474643"/>
<path d="M20.6488 16.7168C20.2263 16.6698 20.0386 16.2474 19.8978 15.9188C19.7569 15.5433 19.6631 15.1208 19.7569 14.6983C19.7569 14.6045 19.4753 14.6045 19.4753 14.6983C19.3814 15.1677 19.4753 15.6371 19.6631 16.0596C19.8039 16.4351 20.1325 16.8106 20.5549 16.8576C20.6019 16.8576 20.6957 16.8576 20.7427 16.8106C20.7427 16.7637 20.6957 16.7168 20.6488 16.7168Z" fill="#474643"/>
<path d="M24.6387 15.1677C23.1835 14.2289 22.1509 12.8207 21.2121 11.3656C21.1651 11.3186 20.8835 11.3186 20.9304 11.4125C21.8692 12.9146 22.9488 14.3228 24.4509 15.2616C24.5448 15.3085 24.7795 15.2616 24.6387 15.1677Z" fill="#474643"/>
<path d="M31.4917 22.021C31.4448 21.9271 31.3979 21.8332 31.3509 21.7393C31.257 21.5985 31.1162 21.5516 30.9285 21.5046C28.0182 20.4719 25.1079 19.3454 22.1507 18.2658C21.916 18.2188 21.5405 18.078 21.3058 18.2188C21.0241 18.4066 20.8364 18.6882 20.6955 18.9699C20.2731 19.7678 19.6159 20.6128 19.4751 21.5046C20.5078 21.7393 21.6343 21.9271 22.667 22.1618C25.7651 22.8189 28.5815 23.9455 31.4917 25.0251C32.055 25.2129 31.5856 22.4434 31.4917 22.0679C31.4917 22.0366 31.4917 22.021 31.4917 22.021Z" fill="#E9CFEE"/>
<path d="M38.7674 48.2134C36.8585 45.4909 35.1217 42.6745 33.557 39.7642C32.6182 38.0118 31.7577 36.2281 30.9753 34.4131C30.3182 32.911 29.5202 31.0803 28.065 30.1885C27.2671 29.7191 26.563 29.766 25.718 29.9068C25.1548 30.0476 24.4976 30.0477 23.8874 30.1885C22.62 30.5171 21.7751 31.5497 21.6343 32.8171C21.2587 35.3988 22.9486 37.8866 24.2629 39.9051C24.3568 39.9989 24.4976 40.0459 24.6384 40.0928C26.516 43.8011 28.5344 47.5563 30.9753 50.889C32.2427 52.6728 33.7917 54.5034 35.904 55.1606C37.4061 55.6769 39.3307 55.5361 40.5042 54.3626C42.0532 52.8136 41.0205 51.2176 39.8939 49.7155C39.5184 49.2148 39.1429 48.7141 38.7674 48.2134Z" fill="#FDB082"/>
<path d="M42.1002 56.1933C44.6819 56.3341 47.3575 56.0994 49.8923 55.9116C52.5679 55.6769 55.1965 55.3014 57.8251 54.7381C58.1537 54.6912 58.4823 54.5973 58.7639 54.4096C59.468 53.9871 59.6089 52.9075 58.8578 52.3911C58.4354 52.0626 57.8251 52.0156 57.2619 51.9687C52.9903 51.687 48.7188 51.4523 44.5411 50.6074C41.7247 50.0441 38.8144 49.1992 35.998 49.8094C35.4817 49.9033 34.9653 50.0911 34.4959 50.3727C33.3224 51.1237 33.1816 52.4381 33.8857 53.6585C34.6368 55.0198 36.3735 55.4892 37.9695 55.7239C39.3464 55.9429 40.7233 56.0994 42.1002 56.1933Z" fill="#FDB082"/>
<path d="M63.5521 54.832C63.5521 54.9259 63.5364 55.0197 63.5051 55.1136C63.5051 55.4891 63.5521 57.3198 64.3501 56.9443C64.6317 56.8035 64.8195 56.4749 64.9133 56.1463C65.4766 54.6912 65.2419 52.2503 63.5521 51.5931C62.9419 51.4054 62.3316 51.3584 61.6745 51.4054C60.6731 51.4054 59.6873 51.4679 58.7172 51.5931C57.7315 51.7339 56.0886 52.1564 56.8396 53.4707C57.2621 54.2687 58.3887 54.6912 59.2805 54.6442C60.0316 54.6129 60.7826 54.5034 61.5337 54.3156C61.9092 54.2218 62.9419 53.5646 63.2704 53.8462C63.4113 53.9871 63.4582 54.2218 63.5051 54.4565C63.5364 54.5816 63.5521 54.7068 63.5521 54.832Z" fill="#FDB082"/>
<path d="M36.186 41.7827C36.0921 41.9705 35.9043 42.0643 35.7166 42.1582C33.9641 43.1283 32.1648 43.9732 30.3185 44.693C29.3484 45.0685 28.3783 45.4284 27.4082 45.7726C26.798 45.9604 25.6245 46.6175 25.1551 45.8665C25.0925 45.7726 25.0299 45.6631 24.9673 45.5379C24.717 44.912 24.4666 44.2705 24.2163 43.6134C24.1224 43.3943 24.0285 43.1753 23.9346 42.9562C23.8094 42.6433 23.6999 42.346 23.606 42.0643C23.5122 41.814 23.4183 41.5793 23.3244 41.3602C22.855 39.9833 22.3856 38.6064 21.9162 37.2295C21.4937 35.9621 21.1652 34.6947 20.7896 33.4274C20.3672 32.16 19.9917 30.7518 20.1794 29.3905C20.3672 28.1701 20.9305 26.9966 21.9162 26.2455C22.5734 25.7292 23.3713 25.4476 24.1693 25.2598C26 24.7904 28.1123 24.8843 29.5674 26.1047C31.0226 27.3252 31.5389 29.2966 32.1491 31.1273C32.7593 33.0988 33.6043 35.0703 34.4022 36.9948C34.4961 37.2139 34.59 37.4173 34.6839 37.605C34.8091 37.9493 34.9499 38.2778 35.1063 38.5908C35.1689 38.8098 35.2472 39.0132 35.341 39.201C35.4662 39.5139 35.5914 39.8112 35.7166 40.0929C35.9043 40.6092 36.5615 41.2194 36.186 41.7827Z" fill="#D99AD2"/>
<path d="M35.106 38.5907C33.1033 39.373 31.1005 40.1397 29.0977 40.8908C27.4079 41.5479 25.6242 42.1582 23.9343 42.9561C24.0282 43.1752 24.1221 43.3942 24.216 43.6133C26.0466 42.7214 28.065 42.0173 29.9426 41.3132L35.3407 39.2009C35.2469 39.0132 35.1686 38.8098 35.106 38.5907ZM34.6836 37.605C34.5897 37.4172 34.4958 37.2138 34.4019 36.9948L29.0977 39.0132C27.1732 39.7642 25.2017 40.4214 23.3241 41.3602C23.418 41.5792 23.5119 41.8139 23.6057 42.0643C25.6242 40.9847 27.8303 40.2336 29.9426 39.4356L34.6836 37.605Z" fill="#E9CFEE"/>
<path d="M42.7574 96.8435C42.7574 96.8122 42.7574 96.7965 42.7574 96.7965C42.6009 96.1081 42.4445 95.4353 42.288 94.7781C40.9267 89.0045 39.2369 83.2778 38.1573 77.4573C37.4532 73.4673 36.7491 69.4305 36.1389 65.3937C35.8103 63.3752 35.4817 61.4038 35.2939 59.3853C35.2001 58.7751 35.9041 56.5689 34.9184 56.475C29.004 56.0056 23.0426 55.2077 17.222 54.0342C16.7057 53.9403 16.2363 54.2689 16.0955 54.7852C16.0016 55.2546 16.3302 55.771 16.8465 55.8648C18.5676 56.2091 20.2888 56.522 22.0099 56.8036C22.0099 56.9914 21.9943 57.1948 21.963 57.4138C20.8364 57.6485 20.9303 58.869 21.3997 59.8547C21.6344 60.2772 21.963 60.8405 21.7283 61.3099C21.5405 61.6385 21.165 61.8262 20.9303 62.1079C20.367 62.6711 20.4139 63.3752 20.6956 64.0793C20.9772 64.8773 21.6813 65.5814 21.5874 66.5202C21.4936 67.3651 20.8833 68.0223 20.7425 68.8672C20.6486 69.5713 20.9772 70.1346 21.3527 70.6979C21.916 71.4959 22.1038 72.1061 21.7283 72.9979C21.4936 73.6082 21.165 74.2184 21.2119 74.8755C21.3058 75.6266 21.916 76.096 22.3385 76.6593C23.4181 78.0675 21.7752 79.5695 22.0099 81.0716C22.2446 82.4329 24.263 83.2778 23.5589 84.7799C23.2773 85.4371 22.8548 85.9534 22.7609 86.7044C22.714 87.4085 22.9018 88.1596 23.3242 88.7698C23.5589 89.0984 23.7936 89.3331 24.1222 89.5678C24.31 89.7086 24.5916 89.8494 24.7794 90.0372C24.8107 90.2249 24.8419 90.4284 24.8732 90.6474C24.7794 91.0699 24.3569 91.5393 24.2161 91.9617C24.1222 92.3372 24.0283 92.7597 24.0753 93.1822C24.1691 94.4965 25.2957 95.3883 26.5631 95.3883C26.7039 96.3741 26.0937 97.4068 26.61 98.3456C27.0325 99.0966 27.9713 99.1905 28.7223 98.9558C29.2856 98.815 29.8019 98.3456 30.3652 98.6741C30.7877 98.9088 31.1163 99.2844 31.5387 99.566C32.1959 99.9415 33.2286 100.176 33.9327 99.7068C34.3082 99.4721 34.3551 98.9088 34.6837 98.7211C35.2 98.3456 36.0919 99.1435 36.5144 99.3782C37.3124 99.7538 38.2512 99.8946 39.0022 99.3782C39.3308 99.1905 39.5655 98.9089 39.8002 98.6272C39.8315 98.5646 39.8784 98.5177 39.941 98.4864C40.0975 98.4864 40.2696 98.4864 40.4573 98.4864C40.692 98.4394 41.0206 98.4864 41.3492 98.5333C41.8655 98.9088 42.4758 99.0966 43.1799 98.7211C43.2268 98.6741 43.3676 98.6272 43.3676 98.5333C43.3207 97.8762 43.1329 97.3129 42.7574 96.8435Z" fill="#672EE0"/>
<path d="M8.20963 59.1506C7.3647 59.9956 8.63209 61.1691 9.19537 61.967C9.28925 62.1079 9.43006 62.2487 9.57088 62.2956C9.80558 62.3425 9.99335 62.2487 10.1342 62.1079C11.3546 61.3568 12.575 60.6058 13.7955 59.8547C10.9321 64.5018 8.11574 69.3366 5.86262 74.3592C5.81568 74.5 5.7218 74.6878 5.81568 74.8286C5.90956 74.9694 6.00344 75.0164 6.14426 75.0633C6.77013 75.2824 7.396 75.5014 8.02186 75.7205C8.16268 75.8143 8.35044 75.8613 8.49127 75.8143C8.63209 75.7205 8.72596 75.5796 8.7729 75.4388C10.6036 71.2142 12.4812 67.0366 14.2179 62.765C15.0629 60.6996 16.0017 58.5873 16.6588 56.475C17.5507 53.7995 15.0629 54.5974 13.5608 55.3485C11.5893 56.3342 9.75865 57.6016 8.20963 59.1506Z" fill="#672EE0"/>
<path d="M34.3082 58.4465C30.5999 58.2118 26.8447 57.7894 23.1365 57.2261C23.0426 57.2261 22.9956 57.1322 23.0426 57.0853C23.0426 56.9914 23.0895 56.9445 23.1834 56.9445C26.8447 57.5077 30.5999 57.8833 34.3082 58.1649C34.4021 58.1649 34.449 58.2118 34.449 58.3057C34.449 58.3996 34.4021 58.4465 34.3082 58.4465Z" fill="#E9CFEE"/>
<path d="M13.7954 59.9487C13.7328 59.9487 13.6859 59.9487 13.6546 59.9487C13.6076 59.8548 13.6076 59.7609 13.6546 59.714C14.6403 58.6343 15.5322 57.4608 16.2832 56.1934C16.2832 56.1465 16.3771 56.0996 16.471 56.1465C16.5179 56.1935 16.5649 56.2873 16.5179 56.3343C15.7669 57.6486 14.875 58.8221 13.8893 59.9017C13.858 59.933 13.8267 59.9487 13.7954 59.9487Z" fill="#E9CFEE"/>
<path d="M9.80544 61.5446C9.77415 61.5446 9.74285 61.5446 9.71156 61.5446C9.61768 61.4977 9.61768 61.4038 9.66462 61.3099C11.1198 59.2915 12.9974 57.5078 15.1566 56.2404C15.2035 56.1934 15.2974 56.2404 15.3444 56.2873C15.3913 56.3812 15.3913 56.4751 15.2974 56.522C13.1851 57.7425 11.3075 59.4793 9.89932 61.4977C9.86803 61.529 9.83673 61.5446 9.80544 61.5446Z" fill="#E9CFEE"/>
<path d="M24.4977 72.3877C24.31 70.0094 24.0909 67.6312 23.8406 65.2529C23.7154 63.9385 23.5746 62.6086 23.4181 61.263C23.4181 61.1221 23.0426 61.1221 23.0426 61.263C23.3242 63.61 23.5746 65.9726 23.7936 68.3509C24.0127 70.7292 24.2161 73.1075 24.4039 75.4858C24.4977 76.8314 24.5916 78.177 24.6855 79.5226C24.6855 79.6165 25.0141 79.6165 25.0141 79.5226C24.8576 77.1443 24.6855 74.766 24.4977 72.3877Z" fill="#E9CFEE"/>
<path d="M34.2615 96.4211C32.4308 96.2803 30.4593 96.0456 29.145 94.5904C28.4409 93.8394 27.9715 92.9006 27.596 91.9618C27.1892 90.9604 26.8762 89.9434 26.6572 88.9107C26.4068 87.7215 26.266 86.5167 26.2347 85.2963C26.2347 85.1555 25.9061 85.1555 25.9061 85.2963C25.9061 87.5025 26.3755 89.7087 27.1735 91.774C27.549 92.7128 27.9715 93.6986 28.6287 94.4965C29.2389 95.2476 30.0838 95.717 30.9757 96.0456C32.0083 96.4211 33.088 96.515 34.1676 96.6088C34.2615 96.6088 34.4023 96.6088 34.4023 96.5619C34.4492 96.468 34.3553 96.468 34.2615 96.4211Z" fill="#E9CFEE"/>
<path d="M40.6922 96.0456C40.6922 95.9987 40.5514 95.9987 40.5044 95.9987C39.8473 96.0612 39.1901 96.1238 38.5329 96.1864C38.4391 96.1864 38.3452 96.1864 38.3921 96.2803C38.4391 96.3742 38.5329 96.3272 38.6268 96.3272C39.284 96.2646 39.9411 96.2177 40.5983 96.1864C40.6452 96.1395 40.7391 96.1395 40.6922 96.0456Z" fill="#E9CFEE"/>
</svg>
