<svg width="160" height="204" viewBox="0 0 160 204" fill="none" xmlns="http://www.w3.org/2000/svg">
<mask id="mask0_220_21326" style="mask-type:luminance" maskUnits="userSpaceOnUse" x="-107" y="-6" width="394" height="263">
<path d="M286.5 4.25187V246.081C286.5 251.741 281.908 256.333 276.248 256.333H-96.7481C-102.407 256.333 -107 251.741 -107 246.081V4.25187C-107 0.238289 -104.691 -3.23538 -101.334 -4.91367C-99.9551 -5.6097 -98.3939 -6 -96.7481 -6H276.248C281.908 -6 286.5 -1.40747 286.5 4.25187Z" fill="white"/>
</mask>
<g mask="url(#mask0_220_21326)">
<path d="M78.4835 112.812C78.4835 113.788 77.9306 114.699 77.0199 115.349C76.1092 116 74.8407 116.39 73.4747 116.39H17.0764C14.3118 116.39 12.035 114.764 12.035 112.812H78.4835Z" fill="#E1ADC3"/>
<path opacity="0.6" d="M73.1166 112.812H15.8076C15.8076 112.812 15.7426 111.316 16.0028 108.974C16.8484 100.875 21.2718 82.9542 44.1694 82.9542C48.17 82.9542 51.6176 83.5071 54.5774 84.4504C73.5394 90.5 73.1166 112.812 73.1166 112.812Z" fill="#E8BFCE"/>
<path d="M46.9343 80.4825C46.9343 81.8485 45.8284 82.9544 44.4624 82.9544C43.0963 82.9544 41.9905 81.8485 41.9905 80.4825C41.9905 79.1489 43.0963 78.0431 44.4624 78.0431C45.8284 78.0431 46.9343 79.1489 46.9343 80.4825Z" fill="#E8BFCE"/>
<g style="mix-blend-mode:soft-light" opacity="0.8">
<path d="M73.1166 112.812H15.8076C15.8076 112.812 15.7426 111.316 16.0028 108.974C22.2801 109.202 28.6225 107.933 34.3469 105.299C39.9086 102.762 44.7874 98.9566 48.6579 94.2404C51.0972 91.2807 53.0813 87.9631 54.5774 84.4504C73.5395 90.5001 73.1166 112.812 73.1166 112.812Z" fill="#303136"/>
</g>
<path fill-rule="evenodd" clip-rule="evenodd" d="M155.47 71.9605C155.145 73.164 154.722 74.3674 154.169 75.4732C153.746 77.5223 153.031 79.5063 151.925 81.2952C150.526 83.5069 148.412 85.4584 145.94 86.1089C145.528 85.8487 145.095 85.5777 144.639 85.2958C142.98 84.32 141.126 83.4744 139.175 82.954C136.085 77.9126 132.475 76.1888 132.475 76.1888L131.467 70.9198H131.532C132.052 68.8056 132.93 66.7891 134.069 64.9677C134.979 63.5366 136.085 62.2031 137.093 60.8045C139.565 57.2593 141.322 52.966 140.866 48.6402C140.411 44.3143 137.289 40.1186 132.995 39.4031C133.288 37.4516 132.28 35.435 130.751 34.1665C130.296 33.7979 129.797 33.4835 129.255 33.2233C130.263 31.0767 132.54 29.6781 134.882 29.4179C135.532 29.3529 136.183 29.3854 136.833 29.4504C137.354 29.4071 137.874 29.4071 138.394 29.4504C140.541 29.6456 142.558 30.4912 144.184 31.8898C145.778 33.2884 146.948 35.1423 147.469 37.1914C148.119 39.6958 147.762 42.2978 147.729 44.8347C147.697 46.1357 147.729 47.4693 148.022 48.7377C148.315 49.9086 148.835 51.0145 149.453 52.0228C150.754 54.0718 152.445 55.8607 153.616 57.9748C155.99 62.1705 156.673 67.277 155.47 71.9605ZM155.307 70.0741C156.023 65.358 154.82 60.4792 152.087 56.5762C150.786 54.7223 149.193 52.9985 148.217 50.9169C147.176 48.7052 147.079 46.3309 147.176 43.924C147.306 41.4847 147.501 38.9802 146.721 36.6384C146.07 34.6869 144.769 32.9306 143.078 31.7272C142.005 30.9791 140.801 30.4912 139.565 30.231C140.313 30.5563 141.061 30.9791 141.712 31.467C142.753 32.2151 143.663 33.0932 144.281 34.1991C146.2 37.419 145.355 41.4847 145.517 45.225C145.615 48.0547 146.33 50.8519 147.566 53.3888C148.607 55.4704 149.973 57.3894 151.144 59.4384C153.031 62.756 154.299 66.4638 154.527 70.3018C154.592 71.2992 154.581 72.2858 154.494 73.2615C154.863 72.2207 155.134 71.1583 155.307 70.0741Z" fill="#4E4F54"/>
<path d="M106.91 49.7461C106.759 50.9387 106.639 52.2722 106.553 53.7466C103.333 51.3398 101.316 47.4043 101.251 43.3712C101.251 43.1435 101.251 42.8833 101.381 42.6882C101.544 42.428 101.869 42.3304 102.162 42.2328C107.951 40.3464 112.212 35.2074 117.904 33.0933C120.246 32.2151 122.75 31.8899 125.189 32.1176C126.588 32.2802 128.019 32.6054 129.255 33.2234C129.797 33.4836 130.296 33.798 130.751 34.1666C132.28 35.4351 133.288 37.4516 132.995 39.4031C137.289 40.1187 140.411 44.3144 140.866 48.6402C141.322 52.9661 139.565 57.2593 137.093 60.8046C136.085 62.2031 134.979 63.5367 134.069 64.9678C132.93 66.7892 132.052 68.8057 131.532 70.9198H131.467L130.849 67.6023C131.597 66.2362 132.182 64.7401 132.605 63.1138C133.256 62.9187 133.841 62.4308 134.329 61.9104C135.305 60.8046 136.085 59.5036 136.541 58.0725C136.833 57.0967 136.996 56.0884 136.833 55.0802C136.671 54.0719 136.15 53.0962 135.272 52.5432C134.491 52.0228 133.451 51.9252 132.54 52.283C131.889 52.5432 131.369 53.0636 131.011 53.6491C129.808 52.8685 128.93 51.5675 128.312 50.234C127.661 48.8679 127.173 47.4368 126.458 46.0708C125.645 44.5096 124.539 43.0785 123.205 41.9076C123.433 43.2411 122.425 44.4445 121.384 45.3227C117.709 48.4451 111.789 50.0388 106.91 49.7461Z" fill="#4E4F54"/>
<path d="M123.661 87.3124L132.475 76.1888C131.271 81.588 129.255 87.3124 126.881 92.8742C126.848 88.9061 123.661 87.3124 123.661 87.3124Z" fill="#BF789B"/>
<path d="M114.879 79.5065L116.895 89.264C116.895 89.264 112.83 89.1664 111.854 92.1261C112.439 81.9133 114.716 79.6691 114.879 79.5065Z" fill="#BF789B"/>
<path d="M123.66 87.3124C123.66 87.3124 126.848 88.9061 126.88 92.8741C122.587 102.957 117.155 112.552 113.252 118.959C111.724 106.6 111.496 98.0131 111.854 92.1261C112.83 89.1663 116.895 89.2639 116.895 89.2639L117.773 97.1674L123.66 87.3124Z" fill="#E3A9C5"/>
<path d="M104.504 85.1982C103.886 85.7837 103.365 86.4017 102.877 87.0847C102.877 87.0847 91.7212 106.697 92.7295 114.015C93.7703 121.366 95.6242 127.741 95.6242 127.741L92.7295 144.394C92.7295 144.394 86.3872 148.882 80.4676 148.297C74.5155 147.744 55.0331 130.44 55.0331 130.44L57.0496 127.513L62.5789 119.317L63.5221 117.951L80.8579 128.261C80.8579 128.261 90.4202 96.3543 94.3883 92.1261C98.3563 87.8978 104.504 85.1982 104.504 85.1982Z" fill="#E3A9C5"/>
<path d="M141.875 88.9386L126.751 102.567L129.19 107.088L108.309 126.733C108.309 126.733 109.61 124.846 111.627 121.594C112.147 120.791 112.689 119.913 113.253 118.959C117.156 112.552 122.588 102.957 126.881 92.8742C129.255 87.3124 131.272 81.588 132.475 76.1888C132.475 76.1888 136.085 77.9127 139.175 82.954C140.184 84.5803 141.127 86.5643 141.875 88.9386Z" fill="#303136"/>
<path d="M111.854 92.1261C111.497 98.0132 111.724 106.6 113.253 118.959C112.689 119.913 112.147 120.791 111.627 121.594L105.837 102.957L108.244 99.8671L102.877 87.0848C103.365 86.4018 103.886 85.7838 104.504 85.1983C108.407 81.3604 114.554 79.604 114.879 79.5065C114.717 79.6691 112.44 81.9133 111.854 92.1261Z" fill="#303136"/>
<path d="M139.988 109.917C139.793 114.178 139.891 118.667 140.574 123.122V123.155L133.548 144.784C134.296 145.63 138.785 153.598 138.785 153.598C141.94 158.022 142.46 164.169 142.46 164.169C142.46 164.169 139.175 165.307 134.004 166.576C126.23 168.43 114.196 170.511 102.942 169.015L108.309 126.733L129.19 107.088L126.751 102.567L141.875 88.9387C141.127 86.5644 140.183 84.5803 139.175 82.9541C141.127 83.4745 142.981 84.3201 144.639 85.2959C144.574 85.491 144.455 85.8488 144.282 86.3692C143.241 89.5892 140.541 98.9239 139.988 109.917Z" fill="#303136"/>
<path d="M105.837 102.957L111.626 121.594C109.61 124.846 108.309 126.733 108.309 126.733L102.942 169.015C97.7055 168.3 92.5991 166.836 88.2083 164.201L92.7292 144.394L95.6239 127.741C95.6239 127.741 93.77 121.366 92.7292 114.015C91.721 106.697 102.877 87.0847 102.877 87.0847L108.244 99.867L105.837 102.957Z" fill="#303136"/>
<path d="M148.802 233.089L147.339 233.382L142.232 234.488L139.76 223.104L137.419 234.943C135.944 235.247 134.459 235.507 132.963 235.724C126.881 236.667 120.798 237.025 115.139 237.057C103.82 237.122 94.258 235.886 90.2249 235.269C88.9239 235.073 88.2083 234.943 88.2083 234.943C81.0203 192.433 88.2083 164.201 88.2083 164.201C92.6317 166.836 97.7056 168.3 102.942 169.015C114.196 170.511 126.23 168.43 134.003 166.576C139.175 165.307 142.46 164.169 142.46 164.169C144.411 171.975 145.843 179.326 146.883 186.123C151.274 214.68 148.802 233.089 148.802 233.089Z" fill="#303136"/>
<path d="M136.54 58.0725C136.085 59.5036 135.304 60.8046 134.329 61.9104C133.841 62.4308 133.255 62.9187 132.605 63.1139C132.182 64.7401 131.597 66.2363 130.849 67.6023C128.442 72.1233 124.441 75.0831 119.888 75.0831C118.489 75.0831 117.123 74.7903 115.854 74.2699C115.247 74.0097 114.662 73.6953 114.098 73.3267C109.577 70.497 106.487 64.4149 106.487 57.3895C106.487 56.0885 106.52 54.8851 106.552 53.7467C106.639 52.2722 106.758 50.9387 106.91 49.7461C111.789 50.0388 117.708 48.4451 121.384 45.3227C122.425 44.4445 123.433 43.2411 123.205 41.9076C124.539 43.0785 125.645 44.5096 126.458 46.0708C127.173 47.4368 127.661 48.8679 128.312 50.234C128.93 51.5675 129.808 52.8685 131.011 53.6491C131.369 53.0637 131.889 52.5433 132.54 52.2831C133.45 51.9253 134.491 52.0229 135.272 52.5433C136.15 53.0962 136.67 54.0719 136.833 55.0802C136.996 56.0885 136.833 57.0968 136.54 58.0725Z" fill="#FFBE92"/>
<path d="M132.475 76.1889L123.661 87.3124L117.774 97.1675L116.895 89.2639L114.879 79.5064L115.855 74.2699C117.123 74.7903 118.489 75.083 119.888 75.083C124.441 75.083 128.442 72.1233 130.849 67.6023L131.467 70.9198L132.475 76.1889Z" fill="#FFBE92"/>
<path d="M62.5788 119.317L57.0495 127.513L53.3091 121.594C53.3091 121.594 37.0467 123.025 34.5097 122.569C31.9402 122.082 25.7605 116.357 25.7605 116.357H30.8669C30.8669 116.357 27.4843 112.031 28.9154 111.804C30.3465 111.576 33.5665 114.959 33.5665 114.959H43.5517C43.5517 114.959 47.1294 112.877 52.3985 112.649C57.6675 112.422 62.5788 119.317 62.5788 119.317Z" fill="#FFBE92"/>
<path d="M178.498 138.051C175.701 142.182 142.623 154.476 139.923 155.485C139.793 155.528 139.728 155.55 139.728 155.55C139.359 154.921 139.045 154.271 138.785 153.598C138.763 153.598 138.752 153.587 138.752 153.566C138.622 153.219 138.492 152.861 138.362 152.492C137.419 149.858 137.061 146.996 136.931 144.134C136.909 143.787 136.887 143.429 136.866 143.06C136.866 142.865 136.898 142.605 137.093 142.507L137.191 142.442L163.471 130.701L145.127 112.389L144.899 112.162L140.574 123.122C139.533 116.195 139.825 109.202 140.606 103.152C141.614 95.216 143.468 88.9062 144.281 86.3692C144.455 85.8488 144.574 85.491 144.639 85.2959C145.095 85.5778 145.528 85.8488 145.94 86.109C149.713 88.5809 152.217 91.4106 152.217 91.4106C179.343 119.48 181.392 133.726 178.498 138.051Z" fill="#E3A9C5"/>
<path d="M110.716 132.945C108.927 132.945 108.927 135.742 110.716 135.742C112.505 135.742 112.505 132.945 110.716 132.945Z" fill="#FFB95C"/>
<path d="M108.244 147.581C106.455 147.581 106.422 150.378 108.244 150.378C110.032 150.378 110.032 147.581 108.244 147.581Z" fill="#FFB95C"/>
<path d="M107.463 159.973C105.674 159.973 105.674 162.77 107.463 162.77C109.252 162.77 109.252 159.973 107.463 159.973Z" fill="#FFB95C"/>
<g style="mix-blend-mode:soft-light">
<path d="M146.883 186.123C151.274 214.68 148.802 233.089 148.802 233.089L147.339 233.382L142.232 234.488L139.76 223.104L137.419 234.943C135.944 235.247 134.459 235.507 132.963 235.724L132.605 235.659L123.661 143.288L140.606 103.152L163.471 130.701L145.127 112.389L144.899 112.162L140.574 123.122V123.155L133.548 144.784C134.264 145.597 138.492 153.11 138.752 153.566C138.774 153.587 138.785 153.598 138.785 153.598C139.218 154.205 139.598 154.834 139.923 155.485C142.07 159.583 142.46 164.169 142.46 164.169C144.412 171.975 145.843 179.326 146.883 186.123Z" fill="#303136"/>
</g>
<path d="M123.466 147.581C121.557 149.164 119.541 150.595 117.416 151.874C116.798 152.232 116.082 152.622 115.399 152.492C115.204 152.46 115.042 152.427 114.944 152.297C114.651 152.004 114.781 151.517 114.976 151.126C115.692 149.63 116.733 148.297 117.904 147.061L117.871 147.028C116.397 147.787 114.868 148.438 113.285 148.98C113.058 149.045 112.732 149.11 112.57 148.947C112.407 148.785 112.407 148.557 112.44 148.362C112.57 147.549 113.123 146.866 113.675 146.248C113.914 146.009 114.153 145.771 114.391 145.532C113.654 145.814 112.906 146.096 112.147 146.378C111.789 146.508 111.334 146.605 111.106 146.313C111.008 146.117 111.041 145.922 111.106 145.695C111.366 144.654 112.082 143.776 112.83 142.995C113.871 141.922 115.074 140.979 116.375 140.198C115.497 140.361 114.586 140.393 113.708 140.23C113.155 140.165 112.505 139.84 112.537 139.287C112.57 138.995 112.797 138.799 112.992 138.604C114.716 137.108 116.895 136.23 119.107 135.677C120.148 135.417 121.221 135.189 122.295 135.254C123.986 135.384 125.547 136.165 127.011 136.978C129.255 138.214 131.434 139.612 133.451 141.174C134.665 142.084 135.825 143.071 136.931 144.133C137.061 146.996 137.419 149.858 138.362 152.492L138.264 152.525C137.657 152.85 137.028 153.099 136.378 153.273C134.264 153.826 131.889 153.631 129.84 152.818C127.238 151.809 125.059 149.89 123.466 147.581Z" fill="#FFBE92"/>
<path d="M120.213 137.954C119.151 138.539 118.088 139.125 117.026 139.71C116.7 139.873 116.993 140.361 117.286 140.165C118.37 139.58 119.443 138.995 120.506 138.409C120.831 138.247 120.538 137.759 120.213 137.954Z" fill="#303136"/>
<path d="M122.132 140.523C119.66 141.629 117.286 142.963 115.074 144.524C114.781 144.752 115.074 145.239 115.367 145.012C117.579 143.451 119.92 142.117 122.425 141.011C122.75 140.881 122.457 140.393 122.132 140.523Z" fill="#303136"/>
<path d="M124.116 142.833C122.099 143.743 120.18 144.914 118.392 146.248C118.099 146.475 118.392 146.963 118.684 146.736C120.441 145.37 122.36 144.231 124.409 143.321C124.734 143.19 124.441 142.703 124.116 142.833Z" fill="#303136"/>
<g style="mix-blend-mode:soft-light">
<path d="M130.849 67.6023C130.849 67.6023 130.133 78.8234 114.879 79.5064L115.855 74.2699C117.123 74.7903 118.489 75.083 119.888 75.083C124.441 75.083 128.442 72.1233 130.849 67.6023Z" fill="#303136"/>
</g>
<g style="mix-blend-mode:soft-light">
<path d="M116.635 64.2196C116.635 64.2196 116.115 57.5195 115.822 56.5112C115.529 55.5029 112.277 62.821 112.342 63.5366C112.375 64.2521 116.635 64.2196 116.635 64.2196Z" fill="#373A44"/>
</g>
<g style="mix-blend-mode:soft-light">
<path d="M122.913 63.7319C123.043 65.4557 124.539 66.7567 126.295 66.6266C128.019 66.4965 129.353 65.0004 129.223 63.244C129.06 61.5202 127.564 60.2192 125.808 60.3493C124.084 60.4794 122.783 61.9755 122.913 63.7319Z" fill="#373A44"/>
</g>
<path d="M111.789 49.5509C110.228 49.7136 108.797 50.1364 107.398 50.8845C105.804 51.7301 107.235 54.1695 108.829 53.3238C109.74 52.8034 110.748 52.4782 111.789 52.3806C112.537 52.3156 113.187 51.7951 113.187 50.982C113.187 50.2665 112.569 49.4859 111.789 49.5509Z" fill="#373A44"/>
<g style="mix-blend-mode:soft-light" opacity="0.3">
<path d="M112.96 55.7632C112.96 57.2594 111.886 58.4953 110.585 58.4953C109.285 58.4953 108.211 57.2594 108.211 55.7632C108.211 54.2345 109.285 53.0311 110.585 53.0311C111.886 53.0311 112.96 54.2345 112.96 55.7632Z" fill="#373A44"/>
</g>
<path d="M112.342 56.6414C112.342 57.7798 111.561 58.723 110.586 58.723C109.642 58.723 108.862 57.7798 108.862 56.6414C108.862 55.4705 109.642 54.5598 110.586 54.5598C111.561 54.5598 112.342 55.4705 112.342 56.6414Z" fill="#373A44"/>
<path d="M120.994 49.3233C122.522 49.4859 123.986 49.9087 125.352 50.6568C126.946 51.535 125.515 53.9743 123.921 53.0962C123.01 52.6083 122.002 52.2505 120.994 52.1529C120.213 52.0879 119.562 51.5675 119.562 50.7544C119.562 50.0388 120.213 49.2582 120.994 49.3233Z" fill="#373A44"/>
<g style="mix-blend-mode:soft-light" opacity="0.3">
<path d="M119.823 55.5356C119.823 57.0317 120.863 58.2677 122.164 58.2677C123.498 58.2677 124.539 57.0317 124.539 55.5356C124.539 54.0069 123.498 52.8035 122.164 52.8035C120.863 52.8035 119.823 54.0069 119.823 55.5356Z" fill="#373A44"/>
</g>
<path d="M120.441 56.4136C120.441 57.552 121.221 58.4952 122.164 58.4952C123.14 58.4952 123.921 57.552 123.921 56.4136C123.921 55.2753 123.14 54.332 122.164 54.332C121.221 54.332 120.441 55.2753 120.441 56.4136Z" fill="#373A44"/>
<g style="mix-blend-mode:soft-light">
<path d="M123.075 65.9761C123.921 67.6674 123.563 69.5538 122.23 70.2369C120.929 70.9199 119.172 70.1068 118.294 68.4155C117.448 66.7567 117.839 64.8377 119.14 64.1547C120.473 63.5042 122.23 64.3173 123.075 65.9761Z" fill="#373A44"/>
</g>
<path d="M123.173 64.9677C124.018 66.659 123.335 68.6756 121.644 69.5212C119.985 70.3669 117.936 69.6838 117.091 67.9925C116.278 66.3338 117.904 66.2362 119.595 65.3905C121.286 64.5449 122.36 63.3089 123.173 64.9677Z" fill="white"/>
</g>
</svg>
