<svg width="116" height="100" viewBox="0 0 116 100" fill="none" xmlns="http://www.w3.org/2000/svg">
<path d="M61.0156 92.3705C85.873 92.3705 106.166 82.4399 106.166 70.2888C106.166 58.1376 85.873 48.207 61.0156 48.207C36.0965 48.207 15.8035 58.1376 15.8035 70.2888C15.8035 82.4399 36.0965 92.3705 61.0156 92.3705Z" fill="#6B5239"/>
<path d="M61.0155 78.1223C82.9123 78.1223 100.8 71.5224 100.8 63.3805C100.8 55.3003 82.9123 48.6388 61.0155 48.6388C39.0571 48.6388 21.1697 55.3003 21.1697 63.3805C21.1697 71.5224 39.0571 78.1223 61.0155 78.1223Z" fill="#7F6449"/>
<path d="M68.294 29.7028C87.4151 31.7382 102.218 40.9904 101.355 50.3659C100.553 59.6797 84.331 65.601 65.2099 63.5039C46.0889 61.4684 31.2854 52.2163 32.149 42.9025C33.0125 33.5887 49.1729 27.6673 68.294 29.7028Z" fill="#E3C396"/>
<path d="M68.294 30.0728C85.1328 31.8616 98.3326 38.3998 97.7158 44.6295C97.1606 50.8593 83.0357 54.4368 66.1968 52.6481C49.3579 50.7976 36.2199 44.3211 36.775 38.0913C37.3301 31.7999 51.4551 28.2224 68.294 30.0728Z" fill="#FCEDD8"/>
<path d="M65.0248 13.974C81.0001 14.3441 93.7681 20.944 93.6447 28.7158C93.4597 36.5493 80.3833 42.5323 64.4697 42.1622C48.556 41.7921 35.7264 35.1306 35.9114 27.3588C36.0348 19.587 49.1111 13.5423 65.0248 13.974Z" fill="#6B5239"/>
<path d="M65.0247 14.2208C79.088 14.5909 90.3756 19.0319 90.2522 24.2747C90.1905 29.4559 78.7179 33.4035 64.6546 33.0334C50.5914 32.725 39.3038 28.2223 39.4271 23.0411C39.5505 17.8599 51.0232 13.9124 65.0247 14.2208Z" fill="#7F6449"/>
<path d="M70.1443 0.712702C82.5422 2.87153 91.7943 9.59476 90.7457 15.6395C89.6355 21.6842 78.7797 24.8299 66.3818 22.6094C53.9839 20.4506 44.7318 13.7274 45.7804 7.68264C46.8906 1.63791 57.7465 -1.50781 70.1443 0.712702Z" fill="#E3C396"/>
<path d="M70.1442 0.897769C81.0617 2.87156 89.327 7.68269 88.6485 11.7536C87.9083 15.7629 78.5328 17.4899 67.5536 15.5778C56.6361 13.604 48.3708 8.79293 49.0493 4.72199C49.7895 0.651053 59.2267 -1.01434 70.1442 0.897769Z" fill="#FCEDD8"/>
<path d="M88.0319 70.9672C90.0674 69.1785 94.0149 69.7953 96.9756 72.2625C99.9363 74.7297 100.676 78.1222 98.7027 79.8492C96.7289 81.638 92.7196 81.0828 89.759 78.6156C86.86 76.1484 86.0581 72.6943 88.0319 70.9672Z" fill="#FFBCAD"/>
<path d="M106.721 68.1916C109.25 69.3018 109.867 72.6943 108.017 75.9017C106.228 79.0474 102.65 80.7745 100.121 79.6642C97.5924 78.6156 96.9756 75.1615 98.7644 71.9541C100.615 68.8084 104.131 67.0813 106.721 68.1916Z" fill="#FFBCAD"/>
<path d="M115.541 82.5633C115.11 85.0305 111.471 86.5725 107.4 86.0791C103.329 85.5856 100.368 83.18 100.8 80.7745C101.17 78.3073 104.809 76.7652 108.88 77.2587C112.951 77.8138 115.912 80.1577 115.541 82.5633Z" fill="#FFBCAD"/>
<path d="M102.342 94.2209C99.5045 94.6527 96.6672 92.1854 95.9887 88.6696C95.2485 85.2155 96.9756 82.0698 99.8129 81.638C102.589 81.2062 105.426 83.7352 106.166 87.1893C106.845 90.6434 105.117 93.8508 102.342 94.2209Z" fill="#FFBCAD"/>
<path d="M85.3179 87.0659C84.0226 84.907 85.873 81.823 89.5122 80.1576C93.1514 78.4922 97.1606 78.924 98.5176 81.0828C99.8129 83.2416 97.9625 86.3257 94.3233 87.9911C90.6841 89.6565 86.6749 89.2247 85.3179 87.0659Z" fill="#FFBCAD"/>
<path d="M91.856 74.1128C93.1513 73.0025 95.7419 73.3726 97.5924 74.9763C99.5045 76.58 99.9979 78.7389 98.7026 79.9108C97.469 81.0211 94.8784 80.651 92.9663 79.0473C91.0542 77.4436 90.5607 75.2847 91.856 74.1128Z" fill="#E3816B"/>
<path d="M103.884 72.3858C105.488 73.0643 105.919 75.2848 104.747 77.3203C103.575 79.3558 101.293 80.466 99.6279 79.7258C97.9625 79.0473 97.5924 76.8268 98.7644 74.7914C99.9363 72.7559 102.218 71.6457 103.884 72.3858Z" fill="#E3816B"/>
<path d="M109.558 81.6379C109.25 83.1799 106.968 84.1668 104.316 83.8584C101.725 83.55 99.8129 82.0079 100.06 80.4659C100.306 78.8622 102.65 77.8753 105.303 78.2454C107.893 78.5538 109.805 80.0958 109.558 81.6379Z" fill="#E3816B"/>
<path d="M101.047 89.163C99.2578 89.4098 97.4074 87.806 96.9756 85.5855C96.4822 83.3033 97.5924 81.2679 99.4429 81.0211C101.232 80.7744 103.082 82.3781 103.514 84.5986C103.946 86.8191 102.835 88.8546 101.047 89.163Z" fill="#E3816B"/>
<path d="M90.129 84.4753C89.2655 83.1183 90.4991 81.1445 92.7813 80.0342C95.1252 78.9857 97.7158 79.2941 98.5793 80.6511C99.4429 82.0697 98.2709 84.0435 95.927 85.0921C93.5832 86.2023 90.9926 85.8939 90.129 84.4753Z" fill="#E3816B"/>
<path d="M95.742 77.382C96.3588 76.7652 97.7157 76.9502 98.7026 77.8138C99.6895 78.6156 99.9363 79.7875 99.3195 80.3427C98.641 80.9595 97.284 80.7745 96.2971 79.9109C95.3102 79.1091 95.0635 77.9371 95.742 77.382Z" fill="#8C8233"/>
<path d="M101.972 76.4568C102.835 76.8269 103.02 77.9371 102.404 79.0474C101.787 80.096 100.615 80.6511 99.7513 80.281C98.8877 79.9109 98.7027 78.8007 99.3195 77.6904C99.9363 76.6418 101.108 76.0867 101.972 76.4568Z" fill="#8C8233"/>
<path d="M104.932 81.2679C104.747 82.0698 103.575 82.6249 102.218 82.4399C100.861 82.2548 99.8746 81.453 99.998 80.6511C100.121 79.8493 101.355 79.2942 102.712 79.4792C104.069 79.6643 105.056 80.4661 104.932 81.2679Z" fill="#8C8233"/>
<path d="M100.491 85.1539C99.5661 85.2772 98.5792 84.4754 98.3942 83.3034C98.1475 82.1315 98.7026 81.0829 99.6278 80.9595C100.615 80.8362 101.54 81.638 101.787 82.81C102.033 83.9819 101.417 85.0305 100.491 85.1539Z" fill="#8C8233"/>
<path d="M94.8168 82.7483C94.385 82.0081 95.0018 81.0212 96.2355 80.4661C97.4074 79.911 98.7644 80.0343 99.1962 80.7745C99.6896 81.5147 99.0111 82.5016 97.8392 83.0567C96.6056 83.6118 95.2486 83.4885 94.8168 82.7483Z" fill="#8C8233"/>
<path d="M97.7774 79.1091C98.7643 78.2455 100.368 78.2455 101.355 79.0474C102.342 79.9109 102.342 81.2679 101.355 82.1314C100.43 82.9333 98.826 82.995 97.8391 82.1314C96.8522 81.3296 96.8522 79.9726 97.7774 79.1091Z" fill="#FCEDD8"/>
<path d="M81.0619 70.5971C78.533 71.2756 76.7442 74.8531 77.1143 78.6156C77.4844 82.4398 79.89 84.9688 82.4189 84.2903C84.9478 83.6735 86.7365 80.096 86.3664 76.2718C85.9964 72.5092 83.5908 69.9803 81.0619 70.5971Z" fill="#FFD9D1"/>
<path d="M68.4173 84.2904C67.8622 87.0043 70.3294 89.4099 73.9686 89.7183C77.5461 89.965 80.9385 88.0529 81.4937 85.3389C81.9871 82.625 79.5199 80.2194 75.9424 79.9727C72.3032 79.6643 68.9725 81.6381 68.4173 84.2904Z" fill="#FFD9D1"/>
<path d="M75.2639 99.5255C77.4844 100.574 80.7535 98.4769 82.6039 94.8377C84.4544 91.2602 84.2076 87.4977 81.9871 86.5108C79.7666 85.4622 76.4975 87.5594 74.6471 91.1986C72.7967 94.7761 73.0434 98.5386 75.2639 99.5255Z" fill="#FFD9D1"/>
<path d="M92.1645 95.2696C94.0766 93.1724 93.6448 89.4716 91.1776 86.9427C88.7103 84.4754 85.1329 84.1053 83.2824 86.1408C81.3703 88.238 81.8021 91.9388 84.2693 94.4677C86.7366 96.935 90.2524 97.305 92.1645 95.2696Z" fill="#FFD9D1"/>
<path d="M95.742 77.382C94.6934 75.0998 91.1159 74.8531 87.7851 76.9502C84.3927 78.9857 82.4806 82.5015 83.5292 84.7837C84.5777 87.1276 88.1552 87.3126 91.486 85.2155C94.8785 83.18 96.7906 79.6642 95.742 77.382Z" fill="#FFD9D1"/>
<path d="M81.5553 75.47C79.8899 75.9018 78.7796 78.2456 79.0263 80.6512C79.2731 83.1184 80.7534 84.7221 82.4188 84.2903C84.0842 83.9203 85.1944 81.5764 84.9477 79.1708C84.701 76.7036 83.159 75.0999 81.5553 75.47Z" fill="#FFBCAD"/>
<path d="M73.4135 84.3521C73.0434 86.0792 74.6471 87.6212 76.991 87.8063C79.2731 87.9913 81.432 86.696 81.8021 84.9689C82.1722 83.2419 80.5684 81.6999 78.2246 81.5148C75.9424 81.3298 73.7219 82.5634 73.4135 84.3521Z" fill="#FFBCAD"/>
<path d="M77.7928 94.1593C79.2732 94.7761 81.3703 93.4191 82.5422 91.1369C83.7759 88.793 83.5908 86.3875 82.1105 85.709C80.6918 85.0922 78.5947 86.3875 77.4227 88.7314C76.1891 91.0752 76.3742 93.4808 77.7928 94.1593Z" fill="#FFBCAD"/>
<path d="M88.7103 91.3837C89.9439 90.0267 89.6355 87.6212 88.0318 86.0175C86.4898 84.4137 84.2076 84.167 82.974 85.524C81.7403 86.8193 82.0488 89.2249 83.5908 90.8286C85.1945 92.4323 87.4767 92.679 88.7103 91.3837Z" fill="#FFBCAD"/>
<path d="M90.9925 79.8493C90.314 78.369 88.0318 78.2457 85.873 79.6026C83.7142 80.8979 82.4805 83.1801 83.159 84.6604C83.7758 86.1408 86.1197 86.2642 88.2785 84.9072C90.4374 83.6119 91.671 81.3297 90.9925 79.8493Z" fill="#FFBCAD"/>
<path d="M82.0489 80.4661C81.1854 80.6511 80.5686 81.8847 80.7536 83.1183C80.877 84.4136 81.6172 85.2772 82.4807 85.0305C83.3442 84.8454 83.961 83.6118 83.776 82.3782C83.6526 81.0829 82.9125 80.2193 82.0489 80.4661Z" fill="#8C8233"/>
<path d="M77.7928 85.0305C77.6078 85.9557 78.4713 86.7575 79.6433 86.8192C80.8769 86.9426 81.9872 86.2641 82.1722 85.4005C82.3572 84.4753 81.4937 83.6735 80.3218 83.6118C79.0881 83.4885 77.9779 84.1669 77.7928 85.0305Z" fill="#8C8233"/>
<path d="M80.0751 90.1499C80.8152 90.4583 81.9255 89.7799 82.5423 88.5463C83.1591 87.3743 83.0974 86.1407 82.3573 85.7706C81.6171 85.4005 80.5068 86.1407 79.89 87.3126C79.2732 88.5463 79.3349 89.7799 80.0751 90.1499Z" fill="#8C8233"/>
<path d="M85.7497 88.7313C86.3665 87.9912 86.2431 86.7575 85.4413 85.9557C84.5777 85.0922 83.4058 84.9688 82.789 85.6473C82.1105 86.3258 82.2956 87.6211 83.0974 88.4229C83.9609 89.2865 85.1329 89.4098 85.7497 88.7313Z" fill="#8C8233"/>
<path d="M86.9217 82.7483C86.6132 81.9465 85.3796 81.8848 84.2694 82.5633C83.1591 83.2418 82.5423 84.4137 82.8507 85.2155C83.2208 85.9557 84.3927 86.0174 85.503 85.3389C86.6749 84.6604 87.2917 83.4885 86.9217 82.7483Z" fill="#8C8233"/>
<path d="M82.2956 83.1184C81.0619 83.4268 80.1984 84.7222 80.3218 86.0175C80.4451 87.2511 81.5554 88.0529 82.7273 87.7445C83.9609 87.3744 84.8862 86.1408 84.7628 84.8455C84.6394 83.6119 83.5292 82.81 82.2956 83.1184Z" fill="#FCEDD8"/>
<path d="M19.3 45.5964C19.2412 46.3025 18.5939 46.8321 17.829 46.7732C17.1229 46.6555 16.5933 46.0671 16.6522 45.3022C16.8287 43.7723 17.3583 42.772 17.829 41.8305C18.2997 41.0068 18.6528 40.2418 18.4763 39.065C18.3586 38.3589 18.8293 37.6528 19.5354 37.5351C20.2415 37.4174 20.9476 37.8882 21.0653 38.5943C21.4183 40.6537 20.8299 41.8305 20.1827 43.0662C19.7708 43.7723 19.4177 44.5373 19.3 45.5964Z" fill="white"/>
<path d="M19.4765 39.1826C29.4796 38.1235 26.6552 21.4125 16.4167 19C19.4177 23.7073 16.2402 25.296 13.71 30.1799C11.2387 35.0637 15.2399 39.5945 19.4765 39.1826Z" fill="#F79883"/>
<path d="M19.4765 37.0644C25.1841 36.476 23.7719 26.1787 19.1823 22.7659C21.0652 25.7079 18.0055 27.8263 16.9463 30.886C15.8872 33.8869 16.7698 37.2997 19.4765 37.0644Z" fill="#FFBAAB"/>
<path d="M19.3 57.1881C29.9503 57.1881 38.6588 54.3049 38.6588 50.8333C38.6588 47.3028 29.9503 44.4196 19.3 44.4196C8.70853 44.4196 0 47.3028 0 50.8333C0 54.3049 8.70853 57.1881 19.3 57.1881Z" fill="#FFBCAD"/>
<path d="M0 96.2H38.6588V50.8333H0V96.2Z" fill="#F79883"/>
</svg>
