<svg width="150" height="94" viewBox="0 0 150 94" fill="none" xmlns="http://www.w3.org/2000/svg">
<path fill-rule="evenodd" clip-rule="evenodd" d="M76.2911 21.8804C75.9182 21.8804 75.5867 21.7146 75.338 21.4245C73.8876 19.4768 70.3238 14.5869 68.9562 10.9816C68.8734 10.733 68.459 9.57267 68.459 8.20515C68.459 3.85395 71.9814 0.331543 76.2911 0.331543C80.6423 0.331543 84.1647 3.85395 84.1647 8.20515C84.1647 9.14446 83.999 10.0423 83.6675 10.8988C82.3414 14.504 78.7361 19.4768 77.2443 21.4245C77.0371 21.7146 76.6641 21.8804 76.2911 21.8804ZM76.2911 4.43411C74.2606 4.43411 72.5615 6.13315 72.5615 8.20515C72.5615 10.2357 74.2606 11.9348 76.2911 11.9348C78.3631 11.9348 80.0207 10.2357 80.0207 8.20515C80.0207 6.13315 78.3631 4.43411 76.2911 4.43411Z" fill="#672EE0"/>
<path fill-rule="evenodd" clip-rule="evenodd" d="M84.4961 8.20513C84.4961 9.17206 84.3304 10.1114 83.9989 11.0231C82.6314 14.6283 78.9846 19.6426 77.4928 21.6317C77.2027 22.0047 76.7883 22.2119 76.291 22.2119C75.8352 22.2119 75.3793 22.0047 75.0893 21.6317C73.6389 19.6426 70.0336 14.7112 68.6661 11.1059C68.5832 10.8573 68.1273 9.61409 68.1273 8.20513C68.1273 3.68816 71.8155 0 76.291 0C80.808 0 84.4961 3.68816 84.4961 8.20513ZM68.7489 8.20513C68.7489 9.61409 69.2462 10.8573 69.2462 10.8573C70.5723 14.4211 74.0947 19.2696 75.5865 21.2587C75.7937 21.4659 76.0424 21.5903 76.291 21.5903C76.5811 21.5903 76.8297 21.4659 76.9955 21.2587C78.5288 19.2282 82.0926 14.3383 83.3773 10.7744C83.7088 9.98705 83.8745 9.11681 83.8745 8.20513C83.8745 4.01968 80.4765 0.621601 76.291 0.621601C72.147 0.621601 68.7489 4.01968 68.7489 8.20513ZM72.2713 8.20513C72.2713 5.96736 74.0533 4.14401 76.291 4.14401C78.5288 4.14401 80.3521 5.96736 80.3521 8.20513C80.3521 10.4429 78.5288 12.2248 76.291 12.2248C74.0533 12.2248 72.2713 10.4429 72.2713 8.20513ZM79.7305 8.20513C79.7305 6.29888 78.1973 4.76561 76.291 4.76561C74.4262 4.76561 72.8929 6.29888 72.8929 8.20513C72.8929 10.0699 74.4262 11.6032 76.291 11.6032C78.1973 11.6032 79.7305 10.0699 79.7305 8.20513Z" fill="white"/>
<path d="M44.1337 93.4058H37.1717C35.9285 93.4058 34.934 92.4113 34.934 91.1681V69.122C34.934 67.9202 35.9285 66.9257 37.1717 66.9257H44.1337C45.3769 66.9257 46.3714 67.9202 46.3714 69.122V91.1681C46.3714 92.4113 45.3769 93.4058 44.1337 93.4058Z" fill="#323232"/>
<path d="M116.115 93.4058H109.153C107.91 93.4058 106.915 92.4113 106.915 91.1681V69.122C106.915 67.9202 107.91 66.9257 109.153 66.9257H116.115C117.358 66.9257 118.353 67.9202 118.353 69.122V91.1681C118.353 92.4113 117.358 93.4058 116.115 93.4058Z" fill="#323232"/>
<path d="M44.1751 87.3142H37.1717C35.9285 87.3142 34.934 86.3196 34.934 85.1178V69.122C34.934 67.8788 35.9285 66.9257 37.1717 66.9257H44.1751C45.3768 66.9257 46.3714 67.8788 46.3714 69.122V85.1178C46.3714 86.3196 45.3768 87.3142 44.1751 87.3142Z" fill="#424242"/>
<path d="M116.156 87.3142H109.112C107.91 87.3142 106.915 86.3196 106.915 85.1178V69.122C106.915 67.8788 107.91 66.9257 109.112 66.9257H116.156C117.358 66.9257 118.353 67.8788 118.353 69.122V85.1178C118.353 86.3196 117.358 87.3142 116.156 87.3142Z" fill="#424242"/>
<path d="M85.3664 26.8116C85.242 26.4387 84.9519 26.19 84.579 26.1072C84.579 26.1072 84.5652 26.0934 84.5376 26.0657C79.3161 24.9468 73.9703 24.9468 68.7489 26.0657C68.7489 26.0934 68.7351 26.1072 68.7075 26.1072C68.3345 26.19 68.0444 26.4387 67.9201 26.8116L66.6769 30.7899L76.6639 30.4584L86.6096 30.7899L85.3664 26.8116Z" fill="#FFDD3B"/>
<path d="M44.5067 51.054C44.5067 51.054 43.9265 52.4215 43.8851 52.463C43.8436 52.5458 42.2275 53.9134 42.2275 53.9134C42.2275 53.9134 42.2689 53.4575 42.1446 53.0846C42.0617 52.8359 41.896 52.5873 41.6059 52.5873C40.9014 52.5458 38.4565 53.5404 35.7214 53.1674C33.4008 52.8774 31.9089 50.8054 31.7431 49.8522C31.6188 49.4378 31.6603 49.0234 31.7846 48.6505C32.4062 46.8271 35.3899 45.874 37.752 46.0812C40.5699 46.3713 42.3104 48.6505 43.0563 49.645C43.9265 50.8054 44.3824 49.9766 44.3824 49.9766L44.5067 51.054Z" fill="#FFCE00"/>
<path d="M111.059 53.9136C111.059 53.9136 110.976 52.6289 111.681 52.5875C112.427 52.5461 114.83 53.5406 117.565 53.1677C119.886 52.8776 121.378 50.8056 121.544 49.8524C122.124 47.2417 118.353 45.7913 115.535 46.0814C112.717 46.3715 110.976 48.6921 110.231 49.6452C109.36 50.8056 108.946 49.9768 108.946 49.9768L108.78 51.0542C108.78 51.0542 109.36 52.4217 109.402 52.4632C109.443 52.5461 111.059 53.9136 111.059 53.9136Z" fill="#FFCE00"/>
<path d="M116.656 63.0066V81.8882C116.656 81.8882 116.656 85.8133 111.89 85.8133C107.165 85.8133 76.9109 85.8133 76.9109 85.8133C76.8832 85.8133 76.7589 85.8133 76.5379 85.8133H41.8904C37.1658 85.8133 37.1658 81.8882 37.1658 81.8882V63.0066C37.1658 60.7342 37.8703 58.5444 39.238 56.7265C41.3516 53.917 44.2113 50.8183 44.2113 50.8183C47.444 41.8113 53.0389 33.2588 53.0389 33.2588C54.821 32.1432 58.7997 31.3169 63.027 30.7385C72.2277 29.499 81.5526 29.499 90.7533 30.7385C94.9806 31.3169 98.9593 32.1432 100.741 33.2588C100.741 33.2588 106.336 41.8113 109.569 50.8183C109.569 50.8183 112.429 53.917 114.542 56.7265C115.91 58.5444 116.656 60.7342 116.656 63.0066Z" fill="url(#paint0_linear_220_21388)"/>
<path d="M104.609 49.6814C104.609 49.6814 112.097 58.1343 112.138 58.8623C112.221 59.5094 108.125 59.024 102.085 63.0685C101.423 63.5134 100.678 63.7965 99.8924 63.8774C96.3759 64.3222 86.4882 65.9805 76.9315 65.94C67.3335 65.9805 57.4458 64.3222 53.9293 63.8774C53.1432 63.7965 52.3985 63.5134 51.7366 63.0685C45.7378 59.024 41.6007 59.5094 41.6835 58.8623C41.7248 58.1343 49.213 49.6814 49.213 49.6814" stroke="#FF8A2B" stroke-width="0.6" stroke-miterlimit="10"/>
<path d="M104.346 51.3443C99.9949 50.847 86.8999 49.3966 76.6642 49.3966C66.387 49.3966 53.292 50.847 48.9408 51.3443C48.1948 51.4272 47.6561 50.7641 47.8633 50.1011C48.6093 47.6147 49.6867 44.8382 50.7227 42.2689C51.9244 39.2852 53.1262 36.6331 53.7893 35.2655C54.0793 34.6025 54.6181 34.0638 55.3225 33.8151C61.5386 31.4116 71.3184 31.163 76.6642 31.163C81.9685 31.163 91.7483 31.4116 97.9643 33.8151C98.6688 34.0638 99.2076 34.6025 99.5391 35.2655C100.699 37.8348 103.807 44.7139 105.424 50.1011C105.631 50.7641 105.092 51.4272 104.346 51.3443Z" fill="#303136"/>
<path d="M54.3278 71.6499C54.3692 71.94 54.162 72.23 53.8719 72.2715C48.4019 72.7273 41.6057 70.4067 39.8238 69.7436C39.5337 69.6608 39.3679 69.4121 39.3679 69.122C39.3679 67.2987 39.6994 65.8068 40.0724 64.688C40.4039 63.6934 40.7769 62.9889 41.0255 62.616C41.1498 62.4088 41.357 62.2844 41.6057 62.2844C42.6417 62.3259 45.4596 62.5745 48.7334 64.4808C52.09 66.4699 53.4575 68.9977 54.0377 70.6139C54.1758 71.0559 54.2725 71.4012 54.3278 71.6499Z" fill="#FBE6DD"/>
<path d="M54.3278 71.6499C54.3692 71.94 54.162 72.2301 53.8719 72.2715C48.4019 72.7274 41.6057 70.4067 39.8238 69.7437C39.5337 69.6608 39.3679 69.4121 39.3679 69.1221C39.3679 67.2987 39.6994 65.8069 40.0724 64.688C40.1553 64.9366 42.3516 70.6554 54.0377 70.6139C54.1758 71.0559 54.2725 71.4013 54.3278 71.6499Z" fill="#F1CCCC"/>
<path d="M99.166 71.6499C99.0831 71.94 99.2903 72.23 99.5804 72.2715C105.092 72.7273 111.847 70.4067 113.629 69.7436C113.919 69.6608 114.084 69.4121 114.084 69.122C114.084 67.2987 113.753 65.8068 113.38 64.688C113.048 63.6934 112.675 62.9889 112.427 62.616C112.302 62.4088 112.095 62.2844 111.847 62.2844C110.852 62.3259 107.993 62.5745 104.76 64.4808C101.362 66.4699 99.9948 68.9977 99.4146 70.6139C99.2765 71.0559 99.1936 71.4012 99.166 71.6499Z" fill="#FBE6DD"/>
<path d="M99.166 71.6499C99.0831 71.94 99.2903 72.2301 99.5804 72.2715C105.092 72.7274 111.847 70.4067 113.629 69.7437C113.919 69.6608 114.084 69.4121 114.084 69.1221C114.084 67.2987 113.753 65.8069 113.38 64.688C113.297 64.9366 111.101 70.6554 99.4146 70.6139C99.2765 71.0559 99.1936 71.4013 99.166 71.6499Z" fill="#F1CCCC"/>
<path d="M105.424 50.101C104.678 47.6146 103.642 44.8381 102.564 42.2688C99.4148 44.0922 92.0799 46.8272 76.6642 46.8272C61.207 46.8272 53.8721 44.0922 50.7227 42.2688C49.6867 44.8381 48.6093 47.6146 47.8633 50.101C47.6561 50.764 48.1948 51.427 48.9408 51.3442C53.292 50.8469 66.387 49.3965 76.6642 49.3965C86.8999 49.3965 99.9949 50.8469 104.346 51.3442C105.092 51.427 105.631 50.764 105.424 50.101Z" fill="#3F4045"/>
<path d="M98.2517 65.9407C91.5321 66.907 85.0614 67.3691 81.038 67.5792C78.3004 67.7193 75.5628 67.7193 72.8251 67.5792C68.8017 67.3691 62.2895 66.907 55.5699 65.9407C55.3625 65.9407 55.1966 66.1087 55.2381 66.3188C55.7358 67.7473 57.4365 72.2007 59.0127 73.125C60.9207 74.2594 73.9451 74.9736 76.9316 74.9736C79.8766 74.9736 92.9009 74.2594 94.809 73.125C96.3852 72.2007 98.0858 67.7473 98.5836 66.3188C98.6251 66.1087 98.4591 65.9407 98.2517 65.9407Z" fill="#3C3C3C"/>
<path d="M85.8638 83.5432H66.7185C66.387 83.5432 66.1383 83.2945 66.1383 82.963V79.3992C66.1383 79.1091 66.387 78.8605 66.7185 78.8605H85.8638C86.1953 78.8605 86.4439 79.1091 86.4439 79.3992V82.963C86.4439 83.2945 86.1953 83.5432 85.8638 83.5432Z" fill="white"/>
<defs>
<linearGradient id="paint0_linear_220_21388" x1="57.0375" y1="85.6187" x2="57.0375" y2="27.2518" gradientUnits="userSpaceOnUse">
<stop stop-color="#FFA900"/>
<stop offset="1" stop-color="#FFFF00"/>
</linearGradient>
</defs>
</svg>
